<svg width="36" height="36" viewBox="0 0 36 36" fill="none" xmlns="http://www.w3.org/2000/svg">
<path d="M12.375 13.5L9.5625 13.5C8.81658 13.5 8.10121 13.7963 7.57376 14.3238C7.04632 14.8512 6.75 15.5666 6.75 16.3125L6.75 29.8125C6.75 30.5584 7.04632 31.2738 7.57376 31.8012C8.10121 32.3287 8.81658 32.625 9.5625 32.625L26.4375 32.625C27.1834 32.625 27.8988 32.3287 28.4262 31.8012C28.9537 31.2738 29.25 30.5584 29.25 29.8125L29.25 16.3125C29.25 15.5666 28.9537 14.8512 28.4262 14.3238C27.8988 13.7963 27.1834 13.5 26.4375 13.5L23.625 13.5M12.375 9L18 3.375M18 3.375L23.625 9M18 3.375L18 22.5703" stroke="current" stroke-width="2" stroke-linecap="round" stroke-linejoin="round"/>
</svg>
