<svg width="36" height="36" viewBox="0 0 36 36" fill="none" xmlns="http://www.w3.org/2000/svg">
<path d="M23.625 22.5L26.4375 22.5C27.1834 22.5 27.8988 22.2037 28.4262 21.6762C28.9537 21.1488 29.25 20.4334 29.25 19.6875L29.25 6.1875C29.25 5.44158 28.9537 4.72621 28.4262 4.19876C27.8988 3.67132 27.1834 3.375 26.4375 3.375L9.5625 3.375C8.81658 3.375 8.10121 3.67132 7.57376 4.19876C7.04632 4.72621 6.75 5.44158 6.75 6.1875L6.75 19.6875C6.75 20.4334 7.04632 21.1488 7.57376 21.6762C8.10121 22.2037 8.81658 22.5 9.5625 22.5L12.375 22.5M23.625 27L18 32.625M18 32.625L12.375 27M18 32.625L18 13.4297" stroke="current" stroke-width="2" stroke-linecap="round" stroke-linejoin="round"/>
</svg>
