<svg width="24" height="24" viewBox="0 0 24 24" fill="none" xmlns="http://www.w3.org/2000/svg">
<path d="M7.49922 14.4619L3.62266 16.2014C2.79766 16.5764 2.79766 17.1905 3.62266 17.5655L10.5602 20.7295C11.3519 21.09 12.655 21.09 13.4467 20.7295L20.3842 17.5655C21.2092 17.1905 21.2092 16.5764 20.3842 16.2014L16.637 14.3981M20.3805 6.45234L13.3792 3.26016C12.6203 2.91328 11.3781 2.91328 10.6192 3.26016L3.62266 6.45234C2.79766 6.82734 2.79766 7.44094 3.62266 7.81594L10.5602 10.98C11.3519 11.3409 12.655 11.3409 13.4467 10.98L20.3842 7.81594C21.2055 7.44094 21.2055 6.82687 20.3805 6.45234Z" stroke="current" stroke-width="2" stroke-linecap="round" stroke-linejoin="round"/>
<path d="M7.5 9.58496L3.61875 11.3268C2.79375 11.7018 2.79375 12.3159 3.61875 12.6909L10.5562 15.8545C11.348 16.2154 12.6511 16.2154 13.4428 15.8545L20.3803 12.6909C21.21 12.3159 21.21 11.7018 20.385 11.3268L16.5 9.58496" stroke="current" stroke-width="2" stroke-linecap="round" stroke-linejoin="round"/>
</svg>
