<svg width="36" height="36" viewBox="0 0 36 36" fill="none" xmlns="http://www.w3.org/2000/svg">
<path d="M22.5 3L25.875 6.375L22.5 9.75" stroke="current" stroke-width="2" stroke-linecap="round" stroke-linejoin="round"/>
<path d="M13.875 32.8125L10.5 29.4375L13.875 26.0625" stroke="current" stroke-width="2" stroke-linecap="round" stroke-linejoin="round"/>
<path d="M24.75 6.375H10.125C8.63453 6.37945 7.20637 6.97351 6.15244 8.02744C5.09851 9.08137 4.50445 10.5095 4.5 12V13.125" stroke="current" stroke-width="2" stroke-linecap="round" stroke-linejoin="round"/>
<path d="M16.7864 23.8033L18.27 19.9463C18.2854 19.9062 18.3091 19.8698 18.3394 19.8394C18.3698 19.8091 18.4062 19.7854 18.4463 19.77L22.3033 18.2864C22.3612 18.2641 22.411 18.2248 22.4461 18.1737C22.4812 18.1226 22.5 18.062 22.5 18C22.5 17.938 22.4812 17.8774 22.4461 17.8263C22.411 17.7752 22.3612 17.7359 22.3033 17.7136L18.4463 16.23C18.4062 16.2146 18.3698 16.1909 18.3394 16.1606C18.3091 16.1302 18.2854 16.0938 18.27 16.0537L16.7864 12.1967C16.7641 12.1388 16.7248 12.089 16.6737 12.0539C16.6226 12.0188 16.562 12 16.5 12C16.438 12 16.3774 12.0188 16.3263 12.0539C16.2752 12.089 16.2359 12.1388 16.2136 12.1967L14.73 16.0537C14.7146 16.0938 14.6909 16.1302 14.6606 16.1606C14.6302 16.1909 14.5938 16.2146 14.5537 16.23L10.6967 17.7136C10.6388 17.7359 10.589 17.7752 10.5539 17.8263C10.5188 17.8774 10.5 17.938 10.5 18C10.5 18.062 10.5188 18.1226 10.5539 18.1737C10.589 18.2248 10.6388 18.2641 10.6967 18.2864L14.5537 19.77C14.5938 19.7854 14.6302 19.8091 14.6606 19.8394C14.6909 19.8698 14.7146 19.9062 14.73 19.9463L16.2136 23.8033C16.2359 23.8612 16.2752 23.911 16.3263 23.9461C16.3774 23.9812 16.438 24 16.5 24C16.562 24 16.6226 23.9812 16.6737 23.9461C16.7248 23.911 16.7641 23.8612 16.7864 23.8033Z" stroke="current" stroke-width="2" stroke-linecap="round" stroke-linejoin="round"/>
<path d="M30.1432 16.4017L30.885 14.4731C30.8927 14.4531 30.9045 14.4349 30.9197 14.4197C30.9349 14.4045 30.9531 14.3927 30.9731 14.385L32.9017 13.6432C32.9306 13.6321 32.9555 13.6124 32.973 13.5868C32.9906 13.5613 33 13.531 33 13.5C33 13.469 32.9906 13.4387 32.973 13.4132C32.9555 13.3876 32.9306 13.3679 32.9017 13.3568L30.9731 12.615C30.9531 12.6073 30.9349 12.5955 30.9197 12.5803C30.9045 12.5651 30.8927 12.5469 30.885 12.5269L30.1432 10.5983C30.1321 10.5694 30.1124 10.5445 30.0868 10.527C30.0613 10.5094 30.031 10.5 30 10.5C29.969 10.5 29.9387 10.5094 29.9132 10.527C29.8876 10.5445 29.8679 10.5694 29.8568 10.5983L29.115 12.5269C29.1073 12.5469 29.0955 12.5651 29.0803 12.5803C29.0651 12.5955 29.0469 12.6073 29.0269 12.615L27.0983 13.3568C27.0694 13.3679 27.0445 13.3876 27.027 13.4132C27.0094 13.4387 27 13.469 27 13.5C27 13.531 27.0094 13.5613 27.027 13.5868C27.0445 13.6124 27.0694 13.6321 27.0983 13.6432L29.0269 14.385C29.0469 14.3927 29.0651 14.4045 29.0803 14.4197C29.0955 14.4349 29.1073 14.4531 29.115 14.4731L29.8568 16.4017C29.8679 16.4306 29.8876 16.4555 29.9132 16.473C29.9387 16.4906 29.969 16.5 30 16.5C30.031 16.5 30.0613 16.4906 30.0868 16.473C30.1124 16.4555 30.1321 16.4306 30.1432 16.4017Z" stroke="current" stroke-width="2" stroke-linecap="round" stroke-linejoin="round"/>
<path d="M11.25 29.25H25.875C27.3655 29.2455 28.7936 28.6515 29.8476 27.5976C30.9015 26.5436 31.4955 25.1155 31.5 23.625V22.5" stroke="current" stroke-width="2" stroke-linecap="round" stroke-linejoin="round"/>
</svg>
