<svg width="24" height="24" viewBox="0 0 24 24" fill="none" xmlns="http://www.w3.org/2000/svg">
<path d="M15 2L17.25 4.25L15 6.5" stroke="#FFC90D" stroke-width="2" stroke-linecap="round" stroke-linejoin="round"/>
<path d="M9.25 21.875L7 19.625L9.25 17.375" stroke="#FFC90D" stroke-width="2" stroke-linecap="round" stroke-linejoin="round"/>
<path d="M16.5 4.25H6.75C5.75635 4.25297 4.80425 4.64901 4.10163 5.35163C3.39901 6.05425 3.00297 7.00635 3 8V8.75" stroke="#FFC90D" stroke-width="2" stroke-linecap="round" stroke-linejoin="round"/>
<path d="M11.1909 15.8689L12.18 13.2975C12.1903 13.2708 12.206 13.2465 12.2263 13.2263C12.2465 13.206 12.2708 13.1903 12.2975 13.18L14.8689 12.1909C14.9075 12.1761 14.9407 12.1499 14.9641 12.1158C14.9875 12.0817 15 12.0413 15 12C15 11.9587 14.9875 11.9183 14.9641 11.8842C14.9407 11.8501 14.9075 11.8239 14.8689 11.8091L12.2975 10.82C12.2708 10.8097 12.2465 10.794 12.2263 10.7737C12.206 10.7535 12.1903 10.7292 12.18 10.7025L11.1909 8.13111C11.1761 8.09252 11.1499 8.05934 11.1158 8.03593C11.0817 8.01253 11.0413 8 11 8C10.9587 8 10.9183 8.01253 10.8842 8.03593C10.8501 8.05934 10.8239 8.09252 10.8091 8.13111L9.81999 10.7025C9.80972 10.7292 9.79395 10.7535 9.77371 10.7737C9.75347 10.794 9.72921 10.8097 9.70249 10.82L7.13111 11.8091C7.09252 11.8239 7.05934 11.8501 7.03593 11.8842C7.01253 11.9183 7 11.9587 7 12C7 12.0413 7.01253 12.0817 7.03593 12.1158C7.05934 12.1499 7.09252 12.1761 7.13111 12.1909L9.70249 13.18C9.72921 13.1903 9.75347 13.206 9.77371 13.2263C9.79395 13.2465 9.80972 13.2708 9.81999 13.2975L10.8091 15.8689C10.8239 15.9075 10.8501 15.9407 10.8842 15.9641C10.9183 15.9875 10.9587 16 11 16C11.0413 16 11.0817 15.9875 11.1158 15.9641C11.1499 15.9407 11.1761 15.9075 11.1909 15.8689Z" stroke="#FFC90D" stroke-width="2" stroke-linecap="round" stroke-linejoin="round"/>
<path d="M20.0955 10.9344L20.59 9.64875C20.5951 9.6354 20.603 9.62326 20.6131 9.61314C20.6233 9.60302 20.6354 9.59514 20.6488 9.59L21.9344 9.09545C21.9537 9.08803 21.9703 9.07494 21.982 9.0579C21.9937 9.04086 22 9.02067 22 9C22 8.97933 21.9937 8.95914 21.982 8.9421C21.9703 8.92506 21.9537 8.91197 21.9344 8.90455L20.6488 8.41C20.6354 8.40486 20.6233 8.39698 20.6131 8.38686C20.603 8.37674 20.5951 8.3646 20.59 8.35125L20.0955 7.06556C20.088 7.04626 20.0749 7.02967 20.0579 7.01797C20.0409 7.00626 20.0207 7 20 7C19.9793 7 19.9591 7.00626 19.9421 7.01797C19.9251 7.02967 19.912 7.04626 19.9045 7.06556L19.41 8.35125C19.4049 8.3646 19.397 8.37674 19.3869 8.38686C19.3767 8.39698 19.3646 8.40486 19.3512 8.41L18.0656 8.90455C18.0463 8.91197 18.0297 8.92506 18.018 8.9421C18.0063 8.95914 18 8.97933 18 9C18 9.02067 18.0063 9.04086 18.018 9.0579C18.0297 9.07494 18.0463 9.08803 18.0656 9.09545L19.3512 9.59C19.3646 9.59514 19.3767 9.60302 19.3869 9.61314C19.397 9.62326 19.4049 9.6354 19.41 9.64875L19.9045 10.9344C19.912 10.9537 19.9251 10.9703 19.9421 10.982C19.9591 10.9937 19.9793 11 20 11C20.0207 11 20.0409 10.9937 20.0579 10.982C20.0749 10.9703 20.088 10.9537 20.0955 10.9344Z" stroke="#FFC90D" stroke-width="2" stroke-linecap="round" stroke-linejoin="round"/>
<path d="M7.5 19.5H17.25C18.2436 19.497 19.1958 19.101 19.8984 18.3984C20.601 17.6958 20.997 16.7436 21 15.75V15" stroke="#FFC90D" stroke-width="2" stroke-linecap="round" stroke-linejoin="round"/>
</svg>
