<svg width="25" height="24" viewBox="0 0 25 24" fill="none" xmlns="http://www.w3.org/2000/svg">
<path d="M10.8636 3C9.40722 3 7.98354 3.43187 6.7726 4.24099C5.56167 5.05011 4.61786 6.20015 4.06052 7.54567C3.50319 8.89119 3.35737 10.3718 3.64149 11.8002C3.92562 13.2286 4.62693 14.5406 5.65675 15.5704C6.68657 16.6003 7.99863 17.3016 9.42703 17.5857C10.8554 17.8698 12.336 17.724 13.6815 17.1667C15.027 16.6093 16.1771 15.6655 16.9862 14.4546C17.7953 13.2437 18.2272 11.82 18.2272 10.3636C18.2271 8.41069 17.4512 6.5378 16.0703 5.15688C14.6894 3.77597 12.8165 3.00012 10.8636 3Z" stroke="current" stroke-width="2" stroke-miterlimit="10"/>
<path d="M16.3574 15.8573L21.5001 21" stroke="current" stroke-width="2" stroke-miterlimit="10" stroke-linecap="round"/>
<path d="M8 10H14" stroke="current" stroke-width="2" stroke-linecap="round"/>
<path d="M11 7V13" stroke="current" stroke-width="2" stroke-linecap="round"/>
</svg>
