<svg width="122" height="40" viewBox="0 0 122 40" fill="none" xmlns="http://www.w3.org/2000/svg">
<path d="M59.3183 23.376H71.7971V16.2094H59.3183V12.7515H73.5315V5.23584H49.5337V34.7641H74.0769V27.2593H59.3183V23.376Z" fill="white"/>
<path d="M89.9702 5.23584H80.022V34.7532H89.9702V5.23584Z" fill="white"/>
<path d="M120.764 21.6089C120.175 20.5726 119.389 19.7218 118.418 19.0782C117.448 18.4346 116.389 17.911 115.233 17.5183C114.077 17.1257 112.921 16.8202 111.754 16.5912C110.586 16.3621 109.517 16.1548 108.547 15.9585C107.576 15.7621 106.801 15.5113 106.212 15.2167C105.623 14.9222 105.329 14.5186 105.329 14.0168C105.329 13.6787 105.449 13.3733 105.689 13.0897C105.929 12.8061 106.332 12.5879 106.889 12.4134C107.456 12.2388 108.208 12.1625 109.168 12.1625C110.466 12.1625 111.786 12.3479 113.15 12.7079C114.513 13.0788 115.92 13.6242 117.393 14.355L120.382 7.14475C118.833 6.2721 117.088 5.62852 115.157 5.2031C113.215 4.77769 111.252 4.57043 109.256 4.57043C106.223 4.57043 103.682 5.01767 101.642 5.92304C99.6019 6.8175 98.0748 8.0283 97.0494 9.53362C96.024 11.0389 95.5114 12.7079 95.5114 14.5295C95.5114 16.1003 95.8059 17.4202 96.3949 18.4783C96.984 19.5363 97.7693 20.3872 98.7402 21.0308C99.711 21.6743 100.78 22.1979 101.947 22.5906C103.114 22.9833 104.271 23.2996 105.427 23.5396C106.583 23.7796 107.641 24.0087 108.612 24.2159C109.583 24.4232 110.357 24.685 110.957 25.0013C111.546 25.3067 111.841 25.7321 111.841 26.2666C111.841 26.6048 111.71 26.8884 111.459 27.1284C111.208 27.3684 110.805 27.5538 110.259 27.6738C109.714 27.8047 108.961 27.8592 108.001 27.8592C106.365 27.8592 104.685 27.6083 102.962 27.1175C101.238 26.6266 99.6674 25.9721 98.2602 25.154L95.0532 32.4079C96.5476 33.3133 98.4456 34.0332 100.747 34.6004C103.049 35.1677 105.438 35.4404 107.914 35.4404C110.979 35.4404 113.521 34.9822 115.55 34.0659C117.578 33.1497 119.095 31.9389 120.12 30.4335C121.145 28.9282 121.658 27.2811 121.658 25.4813C121.658 23.9323 121.364 22.6452 120.775 21.598L120.764 21.6089Z" fill="white"/>
<path d="M20.0055 0C8.95555 0 0 8.95555 0 20.0055C0 31.0554 8.95555 40.0109 20.0055 40.0109C31.0554 40.0109 40.0109 31.0554 40.0109 20.0055C40.0109 8.95555 31.0445 0 20.0055 0ZM20.0055 29.5282C14.7478 29.5282 10.4827 25.2632 10.4827 20.0055C10.4827 14.7478 14.7478 10.4827 20.0055 10.4827C25.2632 10.4827 29.5282 14.7478 29.5282 20.0055C29.5282 25.2632 25.2632 29.5282 20.0055 29.5282Z" fill="white"/>
</svg>
