<svg width="22" height="22" viewBox="0 0 22 22" fill="none" xmlns="http://www.w3.org/2000/svg">
<path d="M11.1634 11.2879L9.35002 6.57376C9.32281 6.50302 9.2748 6.44218 9.21232 6.39927C9.14983 6.35636 9.07582 6.33339 9.00002 6.33339C8.92422 6.33339 8.8502 6.35636 8.78772 6.39927C8.72524 6.44218 8.67723 6.50302 8.65002 6.57376L6.83668 11.2879C6.81784 11.3369 6.78894 11.3814 6.75183 11.4185C6.71473 11.4556 6.67024 11.4845 6.62126 11.5034L1.90709 13.3167C1.83634 13.3439 1.7755 13.3919 1.73259 13.4544C1.68968 13.5169 1.66671 13.5909 1.66671 13.6667C1.66671 13.7425 1.68968 13.8165 1.73259 13.879C1.7755 13.9415 1.83634 13.9895 1.90709 14.0167L6.62126 15.83C6.67024 15.8489 6.71473 15.8778 6.75183 15.9149C6.78894 15.952 6.81784 15.9965 6.83668 16.0455L8.65002 20.7596C8.67723 20.8304 8.72524 20.8912 8.78772 20.9341C8.8502 20.977 8.92422 21 9.00002 21C9.07582 21 9.14983 20.977 9.21232 20.9341C9.2748 20.8912 9.32281 20.8304 9.35002 20.7596L11.1634 16.0455C11.1822 15.9965 11.2111 15.952 11.2482 15.9149C11.2853 15.8778 11.3298 15.8489 11.3788 15.83L16.093 14.0167C16.1637 13.9895 16.2245 13.9415 16.2674 13.879C16.3104 13.8165 16.3333 13.7425 16.3333 13.6667C16.3333 13.5909 16.3104 13.5169 16.2674 13.4544C16.2245 13.3919 16.1637 13.3439 16.093 13.3167L11.3788 11.5034C11.3298 11.4845 11.2853 11.4556 11.2482 11.4185C11.2111 11.3814 11.1822 11.3369 11.1634 11.2879ZM4.83334 3.16667L4.00001 1L3.16667 3.16667L1 4.00001L3.16667 4.83334L4.00001 7.00001L4.83334 4.83334L7.00001 4.00001L4.83334 3.16667ZM18.1113 5.22209L17 2.33334L15.8888 5.22209L13 6.33335L15.8888 7.4446L17 10.3334L18.1113 7.4446L21 6.33335L18.1113 5.22209Z" stroke="white" stroke-width="2" stroke-linecap="round" stroke-linejoin="round"/>
</svg>
