<svg width="35" height="24" viewBox="0 0 35 24" fill="none" xmlns="http://www.w3.org/2000/svg">
<path d="M0.78125 0.0106572C0.826113 0.188241 0.845741 0.277968 0.870977 0.365825C3.14966 8.12064 5.42928 15.8736 7.70142 23.6303C7.79021 23.9321 7.9519 23.9938 8.23884 23.992C10.1231 23.9807 12.0083 23.9714 13.8926 23.9976C14.3057 24.0032 14.4496 23.8546 14.5515 23.4835C15.3525 20.5767 16.1722 17.6756 16.9881 14.7726C17.1433 14.2202 17.3078 13.6706 17.4947 13.0238C17.5583 13.1855 17.5854 13.2397 17.6022 13.2977C18.5686 16.7232 19.5379 20.1477 20.4912 23.5779C20.5772 23.8892 20.6968 23.9966 21.0249 23.9938C22.8942 23.9779 24.7635 23.9667 26.6319 23.9994C27.1048 24.0079 27.2571 23.8321 27.3796 23.4153C29.4414 16.3587 31.5182 9.30764 33.5913 2.25476C33.8044 1.52947 34.0081 0.800438 34.2203 0.0573898C34.1016 0.0358928 34.0418 0.0153305 33.981 0.0153305C31.6294 0.0134612 29.2769 0.0200038 26.9253 0.00411467C26.5907 0.00224536 26.5543 0.198522 26.4935 0.428447C25.901 2.66787 25.3065 4.9073 24.7112 7.14579C24.4046 8.30009 24.0933 9.45345 23.7587 10.7049C23.6886 10.4732 23.6456 10.3442 23.6101 10.2133C22.7418 6.97101 21.8679 3.72964 21.0155 0.482657C20.9202 0.114404 20.7781 -0.0042972 20.3912 0.000376059C18.4602 0.0237424 16.5283 0.0200038 14.5973 0.00224536C14.2655 -0.000558593 14.1412 0.1116 14.0617 0.418166C13.5402 2.41832 13.0028 4.4138 12.4691 6.41022C12.0896 7.82902 11.7092 9.24689 11.2998 10.775C11.2353 10.5816 11.2026 10.4993 11.1802 10.4152C10.2876 7.08317 9.3894 3.75114 8.51269 0.415362C8.42671 0.091972 8.29585 0.00131071 7.97433 0.00411467C5.90221 0.0181345 3.83102 0.0106572 1.7589 0.0106572C1.44953 0.0106572 1.14016 0.0106572 0.78125 0.0106572Z" fill="white"/>
</svg>
