<?xml version="1.0" encoding="UTF-8"?>
<svg version="1.1" xmlns="http://www.w3.org/2000/svg" width="2287" height="478">
<path d="M0 0 C71.57991803 0 71.57991803 0 84 11 C91.69934253 18.84900577 94.37876741 28.23588032 94.5 39 C94.32892058 50.93125091 91.24907635 58.41336198 83.0234375 67.19921875 C81 69 81 69 79 69 C79 69.66 79 70.32 79 71 C79.73347656 71.09410156 80.46695313 71.18820313 81.22265625 71.28515625 C87.90489438 73.0050572 92.8071895 79.24301984 96.375 84.875 C103.61266587 97.92685729 104.6198393 112.50769545 101.046875 126.81640625 C99.42802492 131.73940184 96.98615789 135.79327887 94 140 C93.278125 141.051875 92.55625 142.10375 91.8125 143.1875 C84.31595525 150.68404475 77.35946031 153.17469264 67 156 C44.89 156 22.78 156 0 156 C0 104.52 0 53.04 0 0 Z M17 15 C17 31.17 17 47.34 17 64 C26.1575 64.061875 26.1575 64.061875 35.5 64.125 C38.36655273 64.15231201 38.36655273 64.15231201 41.29101562 64.18017578 C42.82942424 64.18602464 44.36783598 64.19111927 45.90625 64.1953125 C46.68581055 64.20554443 47.46537109 64.21577637 48.26855469 64.22631836 C56.93271052 64.2290361 65.20753686 62.52805138 71.69921875 56.39453125 C77.39567494 50.14636018 78.48447363 44.38427778 78.30859375 36.03515625 C77.57870091 28.85633679 74.62346218 23.90401996 69.171875 19.2890625 C62.48612931 15.32090409 56.63623511 14.57223876 49.03125 14.70703125 C48.21366211 14.71005249 47.39607422 14.71307373 46.55371094 14.71618652 C43.53567659 14.73173618 40.51782395 14.77361879 37.5 14.8125 C30.735 14.874375 23.97 14.93625 17 15 Z M17 78 C17 98.79 17 119.58 17 141 C28.6015625 141.12375 28.6015625 141.12375 40.4375 141.25 C44.0735022 141.30462402 44.0735022 141.30462402 47.78295898 141.36035156 C49.72899493 141.37204659 51.67504074 141.38223648 53.62109375 141.390625 C54.6114563 141.41108887 55.60181885 141.43155273 56.62219238 141.45263672 C65.5998471 141.4570949 72.7889126 138.9052468 79.43359375 132.75390625 C86.03932231 125.35746704 88.36453672 116.3833675 88 106.625 C86.98220435 98.36564683 83.3017885 90.74490267 77.25 85 C69.3878268 79.06513377 61.65736021 77.39874545 51.9609375 77.609375 C51.06673096 77.61340332 50.17252441 77.61743164 49.2512207 77.62158203 C45.95893386 77.64227241 42.66694299 77.69811499 39.375 77.75 C28.299375 77.87375 28.299375 77.87375 17 78 Z " fill="#FFFFFF" transform="translate(646,156)"/>
<path d="M0 0 C5.61 0 11.22 0 17 0 C17.33 23.43 17.66 46.86 18 71 C19.65 69.02 21.3 67.04 23 65 C23.66 65 24.32 65 25 65 C25 64.34 25 63.68 25 63 C37.35864962 53.57198604 50.11498861 50.42068542 65.46875 52.4609375 C80.87272271 55.35770228 93.86799001 62.83270024 103.375 75.4375 C113.16636076 89.9142972 117.00899329 105.2939802 114 122.625 C110.1005861 139.41261757 101.00292855 152.64354263 86.51953125 161.984375 C73.76127374 169.66445125 57.76178404 172.38425076 43.25 168.875 C32.56678813 165.55028362 24.18050524 159.18246492 18 150 C17.67 155.61 17.34 161.22 17 167 C11.39 167 5.78 167 0 167 C0 111.89 0 56.78 0 0 Z M27.25 81.125 C18.58998793 93.02748171 16.30713269 106.86973066 18.49609375 121.26171875 C21.12660394 132.8686592 26.69333223 142.85735382 36.875 149.3125 C46.32526008 154.59394192 56.01656403 155.39232087 66.5625 152.875 C76.94835886 149.69414579 86.07955543 143.46437749 91.7578125 134.1015625 C97.92464956 122.2743436 100.05115658 111.42412513 96.375 98.3125 C92.15984317 85.93324996 84.3526272 77.1464376 72.7578125 71.22265625 C56.86947589 64.17867699 38.50918785 67.70151902 27.25 81.125 Z " fill="#FFFFFF" transform="translate(1811,145)"/>
<path d="M0 0 C5.28 0 10.56 0 16 0 C16 55.11 16 110.22 16 167 C10.72 167 5.44 167 0 167 C-0.33 161.39 -0.66 155.78 -1 150 C-2.299375 151.52625 -3.59875 153.0525 -4.9375 154.625 C-13.42313161 163.96843263 -22.69758184 168.94730141 -35.3828125 170.3828125 C-51.29192088 170.9264039 -66.16255168 166.10521071 -78.25 155.6875 C-90.36427244 144.16744029 -97.72482791 130.47351329 -98.33203125 113.66699219 C-98.64502489 96.51636327 -93.24235171 81.89775356 -81.51904297 69.28662109 C-70.28612211 57.88889579 -55.62285045 52.2905248 -39.8125 51.75 C-25.24796089 51.92980912 -14.08544245 57.81329809 -4 68 C-2.515 69.98 -2.515 69.98 -1 72 C-0.67 48.24 -0.34 24.48 0 0 Z M-65 77 C-65.886875 77.5775 -66.77375 78.155 -67.6875 78.75 C-76.15955297 86.99307856 -81.00342998 96.84790839 -81.47094727 108.63256836 C-81.63470844 121.97704015 -78.04952509 131.94497212 -69 142 C-60.46329581 149.92504003 -50.5854975 154.01339958 -38.9375 154.5 C-28.43132349 154.04320972 -20.63942516 150.71301978 -13.125 143.3671875 C-2.56361602 131.60211637 -1.25253004 118.62721808 -1.82080078 103.41113281 C-2.61391865 92.7396995 -8.12680459 83.39952432 -15.8125 76.1875 C-30.97174047 63.69489456 -49.67438661 66.58751585 -65 77 Z " fill="#FFFFFF" transform="translate(1202,145)"/>
<path d="M0 0 C5.61 0 11.22 0 17 0 C17 21.12 17 42.24 17 64 C43.4 64 69.8 64 97 64 C97 42.88 97 21.76 97 0 C102.61 0 108.22 0 114 0 C114 51.48 114 102.96 114 156 C108.39 156 102.78 156 97 156 C97 131.25 97 106.5 97 81 C70.6 81 44.2 81 17 81 C17 105.75 17 130.5 17 156 C11.39 156 5.78 156 0 156 C0 104.52 0 53.04 0 0 Z " fill="#FFFFFF" transform="translate(1297,156)"/>
<path d="M0 0 C9.99472012 7.7902215 9.99472012 7.7902215 12.62109375 13.04296875 C12.62109375 7.10296875 12.62109375 1.16296875 12.62109375 -4.95703125 C18.23109375 -4.95703125 23.84109375 -4.95703125 29.62109375 -4.95703125 C29.62109375 32.00296875 29.62109375 68.96296875 29.62109375 107.04296875 C24.01109375 107.04296875 18.40109375 107.04296875 12.62109375 107.04296875 C12.29109375 101.43296875 11.96109375 95.82296875 11.62109375 90.04296875 C10.30109375 91.56921875 8.98109375 93.09546875 7.62109375 94.66796875 C-1.09083319 104.30698651 -9.45071487 109.41106428 -22.5703125 110.24609375 C-40.16141664 110.49069775 -54.43393677 105.54028211 -67.23828125 93.2109375 C-67.9446875 92.49550781 -68.65109375 91.78007812 -69.37890625 91.04296875 C-70.22195313 90.23279297 -70.22195313 90.23279297 -71.08203125 89.40625 C-81.29803056 78.73321914 -85.25402243 63.57854823 -85.42871094 49.20556641 C-85.03591723 32.14984743 -77.45431166 17.65127731 -65.31640625 5.91796875 C-47.26432471 -9.4370276 -20.06072001 -13.65526515 0 0 Z M-58.55859375 22.70703125 C-66.45621723 32.84174979 -69.60811493 44.38211937 -68.37890625 57.04296875 C-66.66142575 65.39616936 -63.74517186 72.41021223 -58.37890625 79.04296875 C-57.90066406 79.6565625 -57.42242188 80.27015625 -56.9296875 80.90234375 C-50.31612012 88.43214843 -39.53981657 93.51628228 -29.6171875 94.24609375 C-17.69769532 94.43706025 -8.57904786 91.57218808 0.33984375 83.484375 C9.56901262 73.66661118 12.09532174 60.61069201 11.87109375 47.60546875 C11.03280705 35.6598832 6.59540195 24.23349458 -2.37890625 16.04296875 C-20.38146076 2.71001882 -43.43430131 6.72549146 -58.55859375 22.70703125 Z " fill="#FFFFFF" transform="translate(1759.37890625,204.95703125)"/>
<path d="M0 0 C8.81866384 7.22799576 8.81866384 7.22799576 12 12 C12.33 6.39 12.66 0.78 13 -5 C18.28 -5 23.56 -5 29 -5 C29 31.96 29 68.92 29 107 C23.72 107 18.44 107 13 107 C12.01 98.585 12.01 98.585 11 90 C10.195625 91.175625 9.39125 92.35125 8.5625 93.5625 C1.66981698 102.68279486 -7.71968104 108.18497124 -19 110 C-35.97638074 111.35367219 -50.50435549 107.17878681 -63.9375 96.7109375 C-74.9005144 87.3268355 -82.90737589 74.49889563 -85 60 C-86.14126412 42.46727319 -83.59916329 26.33391713 -71.625 12.6875 C-70.10355725 11.1053008 -68.56280375 9.54135875 -67 8 C-66.36191406 7.35160156 -65.72382812 6.70320312 -65.06640625 6.03515625 C-48.2788331 -9.91478331 -19.23884482 -13.69886333 0 0 Z M-58 22 C-67.10741023 34.14951199 -69.44498743 45.06614195 -68 60 C-65.93884766 70.69465838 -59.26899671 79.78078247 -50.8125 86.4375 C-40.53097389 93.35338842 -29.07960977 95.74652366 -16.93359375 93.41015625 C-7.01063744 90.660116 -0.07788157 84.66757936 5.4375 76.0625 C6.33268261 74.39639525 7.18964327 72.70897013 8 71 C8.50853516 69.93458984 8.50853516 69.93458984 9.02734375 68.84765625 C13.23924952 57.80353468 12.62534671 42.38154254 8.2578125 31.5390625 C2.89465612 20.71281514 -4.39735221 12.95446048 -16 9 C-30.98717515 5.25320621 -47.60120273 10.61882788 -58 22 Z " fill="#FFFFFF" transform="translate(1514,205)"/>
<path d="M0 0 C8.81866384 7.22799576 8.81866384 7.22799576 12 12 C12.33 6.39 12.66 0.78 13 -5 C18.28 -5 23.56 -5 29 -5 C29 31.96 29 68.92 29 107 C23.72 107 18.44 107 13 107 C12.01 99.08 12.01 99.08 11 91 C8.8653125 93.536875 8.8653125 93.536875 6.6875 96.125 C-1.14564019 104.97436651 -10.4703161 109.42997252 -22.21484375 110.21484375 C-39.81495102 110.70103456 -55.15337676 105.15221117 -68 93 C-79.62381554 80.71196642 -85.55912555 65.87846916 -85.34936523 48.99975586 C-84.7601727 32.25670158 -78.06822929 18.53909951 -66 7 C-48.29296546 -8.90209956 -20.38026979 -14.51160571 0 0 Z M-52 17 C-52.886875 17.5775 -53.77375 18.155 -54.6875 18.75 C-63.7910078 27.60746705 -68.32175899 38.33889734 -68.5 51 C-68.31345818 63.23511882 -64.24073923 72.96848277 -56 82 C-47.41481726 89.95667247 -37.5287337 94.06197969 -25.8125 94.4375 C-15.64950217 94.01014661 -7.62745986 90.79420794 0 84 C9.92583694 73.030337 12.55126586 59.37348508 11.8515625 44.9375 C10.53099107 33.90339204 5.32993521 23.01569169 -2.96875 15.546875 C-18.30564963 3.86723605 -36.85102569 6.70752747 -52 17 Z " fill="#FFFFFF" transform="translate(844,205)"/>
<path d="M0 0 C11.58731276 9.97693543 18.70774245 22.12317017 21.6875 37.1875 C22.1825 45.6025 22.1825 45.6025 22.6875 54.1875 C-8.3325 54.1875 -39.3525 54.1875 -71.3125 54.1875 C-67.85935912 66.84901657 -64.14937331 77.52051536 -52.64453125 84.8984375 C-42.86516829 89.89645757 -32.09494534 90.69312341 -21.32421875 88.609375 C-11.83198677 85.27876729 -4.61418128 77.49346734 0.6875 69.1875 C2.6044986 69.49795732 4.52108723 69.81094671 6.4375 70.125 C7.50484375 70.29902344 8.5721875 70.47304688 9.671875 70.65234375 C12.05097593 71.07454171 14.35665211 71.55952884 16.6875 72.1875 C15.06098075 83.23592956 6.23621335 91.74204152 -2.3125 98.1875 C-15.80037993 106.64418662 -30.96929143 109.49847628 -46.5625 106 C-62.01396546 101.57358549 -73.6071905 91.99810103 -82.03515625 78.41015625 C-89.94640274 63.92888196 -91.1743053 47.64898795 -87.41015625 31.76953125 C-82.41257751 15.46070668 -72.56943397 2.77252899 -57.5859375 -5.27734375 C-39.00548495 -14.30587351 -16.55201937 -12.78448841 0 0 Z M-63.1875 18.4375 C-68.29454644 25.63156061 -71.06523188 32.45662317 -72.3125 41.1875 C-46.5725 41.1875 -20.8325 41.1875 5.6875 41.1875 C3.93366944 31.54143192 2.93558618 27.5550056 -2.3125 20.1875 C-2.76625 19.5378125 -3.22 18.888125 -3.6875 18.21875 C-9.66898653 10.47000608 -18.8120159 5.96884077 -28.3125 4.1875 C-41.59911392 2.69275593 -54.65147786 8.10539511 -63.1875 18.4375 Z " fill="#FFFFFF" transform="translate(1071.3125,207.8125)"/>
<path d="M0 0 C8.51112909 8.32199289 14.5172474 19.18977252 14.93275452 31.23652649 C14.93563115 32.58907961 14.93304559 33.94165149 14.92602539 35.29418945 C14.92617142 36.03619095 14.92631744 36.77819244 14.9264679 37.54267883 C14.92577404 39.9829099 14.9180064 42.4230636 14.91015625 44.86328125 C14.9082902 46.56007343 14.90686718 48.25686615 14.90586853 49.95365906 C14.9020581 54.4104665 14.89224043 58.86724113 14.88116455 63.32403564 C14.8709187 67.87552446 14.86636412 72.42701859 14.86132812 76.97851562 C14.85061681 85.90236045 14.83303197 94.82617236 14.8125 103.75 C9.2025 103.75 3.5925 103.75 -2.1875 103.75 C-2.18637207 101.57116211 -2.18524414 99.39232422 -2.18408203 97.14746094 C-2.18471269 89.90695655 -2.21835968 82.66686767 -2.2677784 75.42654037 C-2.29671427 71.04137889 -2.31490918 66.65674713 -2.30761719 62.27148438 C-2.30097609 58.03056872 -2.32377681 53.79069541 -2.36605453 49.54999542 C-2.3771015 47.94112108 -2.37796275 46.33213992 -2.36792374 44.72325897 C-2.30772237 33.64522803 -3.52290886 24.22541859 -11.1321106 15.52703857 C-17.66420551 9.09752004 -25.14303826 6.55409795 -34.1875 6.25 C-43.56753889 6.56538092 -50.57509168 9.31167518 -57.4296875 15.75 C-63.38409696 22.52479476 -65.28601813 29.05578827 -65.39282227 37.90527344 C-65.40767166 38.97416557 -65.40767166 38.97416557 -65.42282104 40.06465149 C-65.45433139 42.41285922 -65.47915191 44.76108715 -65.50390625 47.109375 C-65.52448483 48.74034136 -65.54548154 50.37130249 -65.56687927 52.0022583 C-65.62200665 56.28969077 -65.67145699 60.57717063 -65.71972656 64.86468506 C-65.77000983 69.24186406 -65.82566024 73.61897447 -65.88085938 77.99609375 C-65.98832677 86.58067267 -66.08930085 95.16531005 -66.1875 103.75 C-71.7975 103.75 -77.4075 103.75 -83.1875 103.75 C-83.1875 66.79 -83.1875 29.83 -83.1875 -8.25 C-77.5775 -8.25 -71.9675 -8.25 -66.1875 -8.25 C-65.8575 -4.29 -65.5275 -0.33 -65.1875 3.75 C-63.90875 2.533125 -62.63 1.31625 -61.3125 0.0625 C-42.65473325 -16.46044391 -19.30431666 -13.62657646 0 0 Z " fill="#FFFFFF" transform="translate(1647.1875,208.25)"/>
<path d="M0 0 C6.17051452 4.03066494 12.84260634 9.27000652 15.23828125 16.45703125 C13.30838907 17.65685569 11.36908897 18.84155943 9.42578125 20.01953125 C8.34683594 20.68082031 7.26789063 21.34210938 6.15625 22.0234375 C3.23828125 23.45703125 3.23828125 23.45703125 0.23828125 22.45703125 C-1.0859375 20.96875 -1.0859375 20.96875 -2.44921875 19.14453125 C-7.39012559 13.1910435 -14.23651108 10.63514595 -21.76171875 9.45703125 C-31.24848007 8.8546972 -39.13700186 10.60842488 -46.76171875 16.45703125 C-50.08914468 19.46244822 -50.48996593 22.88915158 -50.81640625 27.2109375 C-50.73102095 30.7178339 -49.84818048 32.6533483 -47.76171875 35.45703125 C-43.14882692 38.37673128 -38.75039145 40.31951859 -33.53515625 42.0078125 C-32.15877881 42.46396539 -30.78247925 42.92035333 -29.40625 43.37695312 C-27.28212123 44.07193223 -25.15685174 44.76303877 -23.02978516 45.44897461 C-9.26503874 49.90926642 4.74376668 54.71525939 13.11328125 67.26953125 C16.00358302 75.45871961 15.90256829 83.5822226 12.3046875 91.515625 C6.68659784 101.48822013 -2.08503685 106.98263616 -12.76171875 110.45703125 C-26.89776003 114.13755941 -42.70131369 111.44052667 -55.1484375 104.19921875 C-61.10312168 100.2294293 -66.45930888 95.90705053 -69.76171875 89.45703125 C-69.76171875 88.46703125 -69.76171875 87.47703125 -69.76171875 86.45703125 C-68.01877197 85.58856294 -66.26703212 84.73772498 -64.51171875 83.89453125 C-63.5371875 83.41886719 -62.56265625 82.94320312 -61.55859375 82.453125 C-58.63823864 81.4130544 -57.54008064 81.1661994 -54.76171875 82.45703125 C-53.77171875 83.78734375 -53.77171875 83.78734375 -52.76171875 85.14453125 C-48.55543202 90.62064039 -41.15460146 93.32607035 -34.76171875 95.45703125 C-23.54683006 96.18019003 -15.37946767 95.82192948 -5.82421875 89.51953125 C-2.5023656 86.1976781 -1.86295906 83.59092275 -1.44921875 78.95703125 C-1.80029628 75.02496287 -2.22859069 73.46512082 -4.76171875 70.45703125 C-13.05141389 64.17793662 -23.18486026 61.85924085 -32.99047852 58.83740234 C-45.82638677 54.85713394 -58.69812315 50.85876398 -65.76171875 38.45703125 C-68.21510157 31.09688279 -68.04891213 21.02780627 -64.76171875 13.95703125 C-58.95844391 4.28490652 -51.07655216 -0.98772559 -40.5859375 -4.65234375 C-27.33622862 -7.73807779 -11.91658431 -6.65778048 0 0 Z " fill="#FFFFFF" transform="translate(956.76171875,202.54296875)"/>
<path d="M0 0 C5.28 0 10.56 0 16 0 C16 36.96 16 73.92 16 112 C10.72 112 5.44 112 0 112 C0 75.04 0 38.08 0 0 Z " fill="#FFFFFF" transform="translate(1943,200)"/>
<path d="M0 0 C3.24754239 0.39650405 3.93449436 1.18526474 5.96459961 3.69555664 C6.55998535 4.42790527 7.15537109 5.16025391 7.76879883 5.91479492 C10.83939728 9.9566129 13.77983348 14.07207472 16.65600586 18.25415039 C17.53482422 19.51775391 17.53482422 19.51775391 18.43139648 20.80688477 C22.21822578 26.26647551 25.9271031 31.77558247 29.59350586 37.31665039 C30.42881836 36.32665039 30.42881836 36.32665039 31.28100586 35.31665039 C33.59350586 33.31665039 33.59350586 33.31665039 36.09350586 32.75415039 C39.74090618 33.57481546 40.42702339 35.24971162 42.59350586 38.31665039 C44.59854543 41.71935282 46.44729867 45.19424859 48.28100586 48.69165039 C48.77922852 49.61204102 49.27745117 50.53243164 49.79077148 51.48071289 C52.43408867 56.50193956 54.25657111 60.62793804 54.59350586 66.31665039 C48.27138751 65.59163682 44.37353953 58.93843232 40.59350586 54.31665039 C37.8350302 50.7111187 35.17780707 47.04872784 32.59350586 43.31665039 C31.60350586 43.81165039 31.60350586 43.81165039 30.59350586 44.31665039 C22.16528166 38.46052731 15.19770885 31.35236522 8.56225586 23.55883789 C6.99201195 21.77050454 5.39403068 20.04318323 3.74975586 18.32446289 C3.25008301 17.79699463 2.75041016 17.26952637 2.2355957 16.72607422 C1.2437128 15.68199536 0.24429103 14.64501376 -0.76342773 13.61621094 C-3.57311239 10.63964864 -5.20744761 8.46819224 -5.40649414 4.31665039 C-3.97772242 1.37973075 -3.28371151 0.43207607 0 0 Z " fill="#FFFFFF" transform="translate(359.406494140625,138.683349609375)"/>
<path d="M0 0 C6.72419607 1.13794087 10.86573387 7.45514559 14.7890625 12.609375 C15.26915771 13.23948486 15.74925293 13.86959473 16.24389648 14.51879883 C17.19435948 15.78206429 18.13182126 17.05523427 19.05493164 18.33862305 C21.5417005 21.88353433 21.5417005 21.88353433 25.38842773 23.43164062 C28.74840057 24.16287525 30.00535901 25.53146098 32.3984375 27.97265625 C33.61273438 29.19952148 33.61273438 29.19952148 34.8515625 30.45117188 C35.68429687 31.31291016 36.51703125 32.17464844 37.375 33.0625 C38.2 33.89716797 39.025 34.73183594 39.875 35.59179688 C44.22367385 40.01985128 48.43479511 44.53086878 52.47143555 49.24536133 C54.07756896 51.08904139 55.74997897 52.85588231 57.4375 54.625 C59.58864737 57.13180374 59.983534 57.89091272 60.5 61.3125 C60 64 60 64 58 66 C55.1159668 66.39111328 55.1159668 66.39111328 52 66 C49.95629883 64.22998047 49.95629883 64.22998047 48.14453125 61.7421875 C47.46729004 60.82791992 46.79004883 59.91365234 46.09228516 58.97167969 C45.40183105 57.99102539 44.71137695 57.01037109 44 56 C43.31083496 55.03739258 42.62166992 54.07478516 41.91162109 53.08300781 C39.81099688 50.11412559 37.74458443 47.12418636 35.6875 44.125 C34.29617066 42.10635871 32.90426678 40.08811327 31.51171875 38.0703125 C30.90803467 37.19133301 30.30435059 36.31235352 29.68237305 35.40673828 C28.16443465 33.23523389 26.6040616 31.10837 25 29 C24.01 30.32 23.02 31.64 22 33 C18.8203125 33.0234375 18.8203125 33.0234375 15 32 C12.74603428 29.49746897 11.35929172 26.63112622 9.875 23.625 C9.44977051 22.81023193 9.02454102 21.99546387 8.58642578 21.15600586 C7.36061587 18.78449359 6.17368703 16.39766012 5 14 C4.4225 12.83339844 3.845 11.66679687 3.25 10.46484375 C0 3.60475852 0 3.60475852 0 0 Z " fill="#FFFFFF" transform="translate(458,273)"/>
<path d="M0 0 C-4.46441852 9.95740406 -15.56356315 16.55418308 -24 23 C-23.505 23.99 -23.505 23.99 -23 25 C-27.76637755 30.58230259 -32.73287011 35.88798369 -37.9375 41.0625 C-38.93426758 42.06506836 -38.93426758 42.06506836 -39.95117188 43.08789062 C-43.92786049 47.056865 -48.01311323 50.84388212 -52.27099609 54.50976562 C-53.76331209 55.79599788 -55.22818942 57.11393924 -56.6875 58.4375 C-59.42873562 60.28968623 -60.75822636 60.59716883 -64 60 C-65.875 58.875 -65.875 58.875 -67 57 C-67.0042531 53.98880861 -66.7898326 51.86447416 -64.703125 49.58056641 C-62.87883126 48.08257345 -61.00168038 46.72107575 -59.0625 45.375 C-58.35971924 44.86791504 -57.65693848 44.36083008 -56.93286133 43.83837891 C-49.33829001 38.4092743 -41.55361371 33.24373547 -33.73901367 28.13818359 C-32.1537444 27.10062563 -30.57642358 26.05094905 -29 25 C-29.639375 24.79375 -30.27875 24.5875 -30.9375 24.375 C-33 23 -33 23 -34 20.125 C-34 17 -34 17 -32.33227539 14.9909668 C-29.88584522 12.9025508 -27.54102951 11.49050119 -24.68359375 10.01953125 C-23.16668945 9.23352539 -23.16668945 9.23352539 -21.61914062 8.43164062 C-20.56919922 7.89732422 -19.51925781 7.36300781 -18.4375 6.8125 C-17.38369141 6.26658203 -16.32988281 5.72066406 -15.24414062 5.15820312 C-5.22815017 0 -5.22815017 0 0 0 Z " fill="#FFFFFF" transform="translate(403,261)"/>
<path d="M0 0 C1 1 1 1 1.375 3.75 C0.89420657 7.91687639 -0.92768094 9.42280674 -4 12 C-6.91369252 14.18309931 -9.91411391 16.22246072 -12.9375 18.25 C-13.77128174 18.81485107 -14.60506348 19.37970215 -15.46411133 19.96166992 C-22.56902015 24.75651462 -29.75229803 29.42437086 -37 34 C-36.18789063 34.43441406 -35.37578125 34.86882812 -34.5390625 35.31640625 C-32 37 -32 37 -31.375 39.9375 C-32.22030583 44.07949855 -33.52625889 44.58234601 -37 47 C-40.40406252 49.00275645 -43.87756 50.85377278 -47.375 52.6875 C-48.29539062 53.18572266 -49.21578125 53.68394531 -50.1640625 54.19726562 C-55.18528917 56.84058281 -59.31128765 58.66306525 -65 59 C-63.57586594 53.5577734 -59.89686264 50.89587201 -55.75 47.4375 C-55.09386719 46.87353516 -54.43773437 46.30957031 -53.76171875 45.72851562 C-50.80251631 43.21348771 -47.91754685 40.89804984 -44.578125 38.91015625 C-41.44674455 36.59008801 -41.58758805 35.70460274 -41 32 C-38.99609375 29.3515625 -38.99609375 29.3515625 -36.4375 26.625 C-35.98205811 26.13878174 -35.52661621 25.65256348 -35.05737305 25.15161133 C-31.99945787 21.92973574 -28.81736543 18.95034583 -25.41796875 16.09765625 C-21.1936399 12.43293155 -17.16263783 8.55488878 -13.1027832 4.7097168 C-12.47331787 4.11715088 -11.84385254 3.52458496 -11.1953125 2.9140625 C-10.62828613 2.3773291 -10.06125977 1.8405957 -9.47705078 1.28759766 C-6.21980443 -1.55185974 -4.07543412 -0.86711364 0 0 Z " fill="#FFFFFF" transform="translate(535,158)"/>
<path d="M0 0 C2.58604813 0.9827519 3.76467472 1.54839342 5.06494141 4.04370117 C5.32452637 4.86845947 5.58411133 5.69321777 5.8515625 6.54296875 C6.14546875 7.45240234 6.439375 8.36183594 6.7421875 9.29882812 C7.03351563 10.25208984 7.32484375 11.20535156 7.625 12.1875 C8.07359375 13.58838867 8.07359375 13.58838867 8.53125 15.01757812 C9.80739217 19.02952067 11.01101488 23.02706005 12.0234375 27.11328125 C12.34570312 28.06589844 12.66796875 29.01851563 13 30 C13.99 30.33 14.98 30.66 16 31 C17.36205552 33.48991145 18.51543615 35.8978318 19.625 38.5 C19.96329834 39.28157471 20.30159668 40.06314941 20.65014648 40.8684082 C23.63694981 47.90333968 26.39396607 55.02653073 29.0625 62.1875 C29.46871582 63.2496875 29.87493164 64.311875 30.29345703 65.40625 C32.34919179 71.06558802 33.68267266 75.12283896 32 81 C31 82 31 82 28.125 82.3125 C25 82 25 82 23.43017578 80.48388672 C21.50231163 77.13562966 20.77432892 73.68666563 19.9921875 69.9453125 C19.82123566 69.16614471 19.65028381 68.38697693 19.47415161 67.584198 C18.93162669 65.09974649 18.40332403 62.61250557 17.875 60.125 C17.51261214 58.45944078 17.14934005 56.7940737 16.78515625 55.12890625 C13.9854605 42.24863153 13.9854605 42.24863153 13 36 C12.01 36.66 11.02 37.32 10 38 C6.3125 37.625 6.3125 37.625 3 37 C2.68080061 35.68911318 2.37014053 34.37614752 2.0625 33.0625 C1.88847656 32.33160156 1.71445312 31.60070312 1.53515625 30.84765625 C0.16257682 23.54393065 -0.13730824 16.35502443 -0.0625 8.9375 C-0.05798828 8.07189453 -0.05347656 7.20628906 -0.04882812 6.31445312 C-0.03719913 4.20960461 -0.01927073 2.10479242 0 0 Z " fill="#FFFFFF" transform="translate(443,279)"/>
<path d="M0 0 C1.093125 0.226875 2.18625 0.45375 3.3125 0.6875 C4.13507392 4.01049275 4.57290023 6.02673991 3.29956055 9.2578125 C2.77144775 10.10085937 2.24333496 10.94390625 1.69921875 11.8125 C0.82257568 13.23453735 0.82257568 13.23453735 -0.07177734 14.68530273 C-0.70809082 15.67602783 -1.3444043 16.66675293 -2 17.6875 C-2.63631348 18.70465088 -3.27262695 19.72180176 -3.92822266 20.76977539 C-8.88659925 28.62479597 -14.1043453 36.26473442 -19.6875 43.6875 C-18.2025 44.1825 -18.2025 44.1825 -16.6875 44.6875 C-15.33127755 45.65623032 -13.99332947 46.65184215 -12.6875 47.6875 C-12.99592351 54.05888032 -15.0393496 57.02571372 -19.3125 61.625 C-20.12847656 62.53523926 -20.12847656 62.53523926 -20.9609375 63.46386719 C-22.03927738 64.66608778 -23.12280435 65.86367958 -24.21191406 67.05615234 C-26.61635077 69.71439954 -28.89080338 72.48312384 -31.1875 75.234375 C-32.8790696 76.87308305 -34.54160968 77.74404822 -36.6875 78.6875 C-36.294561 71.73488553 -34.11101445 66.91351264 -30.75 60.875 C-30.29431641 60.03001953 -29.83863281 59.18503906 -29.36914062 58.31445312 C-27.57711171 55.01113775 -25.77359097 51.81663646 -23.6875 48.6875 C-23.85636719 47.92824219 -24.02523438 47.16898438 -24.19921875 46.38671875 C-24.85533638 42.75970046 -23.92036116 40.89374808 -22.5 37.5 C-22.2424292 36.88286133 -21.9848584 36.26572266 -21.71948242 35.62988281 C-20.73267477 33.30468118 -19.71354604 30.99567174 -18.6875 28.6875 C-18.21957031 27.6341748 -17.75164062 26.58084961 -17.26953125 25.49560547 C-15.69310817 21.96999681 -14.10032403 18.45232062 -12.5 14.9375 C-11.97704346 13.7822583 -11.45408691 12.6270166 -10.9152832 11.43676758 C-10.41343506 10.34904053 -9.91158691 9.26131348 -9.39453125 8.140625 C-8.9456958 7.16254883 -8.49686035 6.18447266 -8.03442383 5.17675781 C-5.00385431 -0.42405545 -5.00385431 -0.42405545 0 0 Z " fill="#FFFFFF" transform="translate(495.6875,127.3125)"/>
<path d="M0 0 C5.04436144 0.66612899 8.57680494 3.08858129 12.8359375 5.76953125 C13.70702148 6.30481445 14.57810547 6.84009766 15.47558594 7.39160156 C23.66096797 12.46981854 31.60629128 17.8841817 39.4609375 23.45703125 C40.70080943 22.37519259 40.70080943 22.37519259 41.2109375 19.95703125 C42.4609375 17.45703125 42.4609375 17.45703125 44.7109375 16.39453125 C48.56422824 16.48210604 50.56643864 18.1292448 53.4609375 20.45703125 C54.28980469 21.11445313 55.11867188 21.771875 55.97265625 22.44921875 C58.83040134 24.75295189 61.65030709 27.0961017 64.4609375 29.45703125 C65.34394531 30.19050781 66.22695313 30.92398438 67.13671875 31.6796875 C68.34908203 32.71416016 68.34908203 32.71416016 69.5859375 33.76953125 C70.67261719 34.69185547 70.67261719 34.69185547 71.78125 35.6328125 C73.59309349 37.60055881 74.07993691 38.84198173 74.4609375 41.45703125 C70.07556036 40.90779901 66.77629571 39.83710467 62.87890625 37.76953125 C61.86505859 37.23585937 60.85121094 36.7021875 59.80664062 36.15234375 C58.76443359 35.59289062 57.72222656 35.0334375 56.6484375 34.45703125 C55.58689453 33.89757812 54.52535156 33.338125 53.43164062 32.76171875 C45.63574617 28.63183992 45.63574617 28.63183992 44.4609375 27.45703125 C44.1309375 28.11703125 43.8009375 28.77703125 43.4609375 29.45703125 C34.50786759 27.43906682 26.52631044 23.96416944 18.2734375 20.01953125 C17.04268987 19.43996425 15.81157127 18.86118434 14.58007812 18.28320312 C12.23742114 17.17860794 9.89863932 16.06574393 7.56445312 14.94335938 C5.67149056 14.03678637 3.7707924 13.14587056 1.85742188 12.28320312 C-0.33203125 11.2734375 -0.33203125 11.2734375 -3.5390625 9.45703125 C-4.6640625 5.83203125 -4.6640625 5.83203125 -4.5390625 2.45703125 C-2.5390625 0.45703125 -2.5390625 0.45703125 0 0 Z " fill="#FFFFFF" transform="translate(328.5390625,175.54296875)"/>
<path d="M0 0 C0.99 0 1.98 0 3 0 C2.45779616 4.39823475 1.39040614 7.61086812 -0.7578125 11.4765625 C-1.57185547 12.97703125 -1.57185547 12.97703125 -2.40234375 14.5078125 C-3.55591731 16.59523133 -4.71219292 18.68115908 -5.87109375 20.765625 C-6.41121094 21.76335937 -6.95132812 22.76109375 -7.5078125 23.7890625 C-8.26022217 25.14572021 -8.26022217 25.14572021 -9.02783203 26.52978516 C-10.13790046 29.350396 -9.84251702 30.19244221 -9 33 C-9.44628906 34.92504883 -9.44628906 34.92504883 -10.265625 36.95703125 C-10.5735498 37.72934082 -10.88147461 38.50165039 -11.19873047 39.29736328 C-11.54564941 40.1273584 -11.89256836 40.95735352 -12.25 41.8125 C-12.60336426 42.67601074 -12.95672852 43.53952148 -13.32080078 44.42919922 C-16.30152842 51.58932827 -19.54465077 58.6216662 -22.875 65.625 C-23.35098633 66.62635986 -23.82697266 67.62771973 -24.31738281 68.65942383 C-27.74269094 75.74269094 -27.74269094 75.74269094 -30 78 C-33 78.25 -33 78.25 -36 78 C-38 76 -38 76 -38.31030273 73.21118164 C-37.95566126 69.54115855 -37.01426871 67.70967058 -35.03515625 64.62109375 C-34.40359619 63.62271484 -33.77203613 62.62433594 -33.12133789 61.59570312 C-32.44192139 60.55349609 -31.76250488 59.51128906 -31.0625 58.4375 C-30.3811499 57.37080078 -29.6997998 56.30410156 -28.99780273 55.20507812 C-24.16936332 47.6846364 -19.22570052 40.2508365 -14 33 C-14.969375 32.855625 -15.93875 32.71125 -16.9375 32.5625 C-20 32 -20 32 -21 31 C-21.42564353 27.75294794 -21.66988145 25.15853116 -19.98388672 22.24267578 C-18.54072294 20.43445516 -17.0249916 18.74536325 -15.4375 17.0625 C-14.61693115 16.15226074 -14.61693115 16.15226074 -13.77978516 15.22363281 C-12.69347177 14.02004513 -11.60051693 12.82241316 -10.50048828 11.63134766 C-8.57970759 9.54305339 -6.72624364 7.39995811 -4.875 5.25 C-3.28975874 3.43604234 -1.70471153 1.70471153 0 0 Z " fill="#FFFFFF" transform="translate(411,273)"/>
<path d="M0 0 C3 0.25 3 0.25 5 2.25 C6.46409469 11.02499105 3.71178801 20.50777524 2.0625 29.125 C1.78110856 30.63526923 1.50050388 32.14568526 1.22070312 33.65625 C-0.95713488 45.33446493 -0.95713488 45.33446493 -2 49.25 C-1.071875 49.04375 -0.14375 48.8375 0.8125 48.625 C4 48.25 4 48.25 7 50.25 C7.71704836 56.25138299 6.03599809 61.4321311 4.25 67.125 C3.99734375 67.97191406 3.7446875 68.81882812 3.484375 69.69140625 C1.7302619 75.41858553 -0.44542058 80.83422604 -3 86.25 C-3.99 86.25 -4.98 86.25 -6 86.25 C-6.34910893 75.4470182 -5.26699248 64.96287388 -4 54.25 C-4.66 53.92 -5.32 53.59 -6 53.25 C-7.18800406 48.46761648 -7.069149 43.73989151 -6.9140625 38.8515625 C-6.88220352 37.66087662 -6.88220352 37.66087662 -6.84970093 36.44613647 C-6.80363303 34.7735821 -6.75472216 33.10110387 -6.703125 31.42871094 C-6.62546266 28.89012317 -6.5581206 26.35141657 -6.4921875 23.8125 C-6.44592789 22.17966995 -6.39907226 20.54685665 -6.3515625 18.9140625 C-6.33171295 18.16484528 -6.3118634 17.41562805 -6.29141235 16.64370728 C-5.77179702 0.48098308 -5.77179702 0.48098308 0 0 Z M-3 49.25 C-2 51.25 -2 51.25 -2 51.25 Z " fill="#FFFFFF" transform="translate(449,112.75)"/>
<path d="M0 0 C0.66 0 1.32 0 2 0 C2.20127315 11.21538747 2.25572049 21.96308188 0 33 C0.99 33 1.98 33 3 33 C3.02512449 37.70987581 3.04305588 42.41971079 3.05493164 47.12963867 C3.05989369 48.72469769 3.06666548 50.31975232 3.07543945 51.91479492 C3.23198524 81.15202214 3.23198524 81.15202214 0 86 C-2.41347559 87.04583942 -3.6349948 87.09385848 -6.1875 86.4375 C-8 85 -8 85 -8.68701172 82.40991211 C-9.05159444 78.43789431 -8.5470256 74.89006127 -7.8203125 71.00390625 C-7.68809296 70.25213608 -7.55587341 69.50036591 -7.41964722 68.72581482 C-6.99740834 66.33627378 -6.56162256 63.94945039 -6.125 61.5625 C-5.69859671 59.17864964 -5.27497054 56.79431871 -4.85177612 54.40989685 C-4.58829668 52.93130416 -4.32243256 51.45313364 -4.05374146 49.97547913 C-3.27221683 45.65928099 -2.59490149 41.34476622 -2 37 C-2.495 37.495 -2.495 37.495 -3 38 C-5.72344361 38.28667827 -7.437438 38.30003306 -9.875 37 C-11.70339695 33.74951653 -10.71760005 30.50865024 -10 27 C-8.82879337 22.84605415 -7.45967445 18.77021686 -6.0625 14.6875 C-5.70220703 13.60404297 -5.34191406 12.52058594 -4.97070312 11.40429688 C-2.2722821 3.40842314 -2.2722821 3.40842314 0 0 Z " fill="#FFFFFF" transform="translate(427,279)"/>
<path d="M0 0 C0.97146973 -0.00209473 1.94293945 -0.00418945 2.94384766 -0.00634766 C4.50498291 0.00066162 4.50498291 0.00066162 6.09765625 0.0078125 C7.16419434 0.01119629 8.23073242 0.01458008 9.32958984 0.01806641 C16.31985475 0.06270942 23.30129678 0.20293269 30.28515625 0.5078125 C31.09460693 0.53858887 31.90405762 0.56936523 32.73803711 0.60107422 C37.20363238 0.82906033 40.94996567 1.47832866 45.16015625 3.1328125 C46.47358909 8.50594683 46.47358909 8.50594683 45.22265625 11.0078125 C40.10636077 13.79851913 32.84600275 11.91537987 27.37109375 10.85546875 C26.31071396 10.65926186 26.31071396 10.65926186 25.22891235 10.45909119 C22.99634803 10.0445232 20.76577635 9.62020403 18.53515625 9.1953125 C17.03267736 8.91404352 15.53007389 8.63343915 14.02734375 8.35351562 C11.90646655 7.95836 9.78580774 7.56232569 7.66610718 7.16090393 C3.8379456 6.43650358 0.0056226 5.75887906 -3.83984375 5.1328125 C-3.50984375 5.4628125 -3.17984375 5.7928125 -2.83984375 6.1328125 C-2.65234375 9.0703125 -2.65234375 9.0703125 -2.83984375 12.1328125 C-4.83984375 14.1328125 -4.83984375 14.1328125 -6.765625 14.25 C-24.52472535 12.4479309 -24.52472535 12.4479309 -28.83984375 8.1328125 C-28.88065158 6.13322886 -28.88238731 4.13235996 -28.83984375 2.1328125 C-25.94074091 1.26592391 -23.72531544 1.0869563 -20.73046875 1.47265625 C-19.59931641 1.6128418 -19.59931641 1.6128418 -18.4453125 1.75585938 C-17.27935547 1.91151367 -17.27935547 1.91151367 -16.08984375 2.0703125 C-14.90068359 2.22016602 -14.90068359 2.22016602 -13.6875 2.37304688 C-11.73744004 2.61974121 -9.78851789 2.8754003 -7.83984375 3.1328125 C-7.83984375 2.4728125 -7.83984375 1.8128125 -7.83984375 1.1328125 C-4.91937227 0.15932201 -3.04006792 0.0039758 0 0 Z " fill="#FFFFFF" transform="translate(516.83984375,244.8671875)"/>
<path d="M0 0 C4.18016392 1.29033999 4.18016392 1.29033999 5.9453125 4.5 C6.64552605 6.02843225 7.3140313 7.57163101 7.95703125 9.125 C8.3216748 9.95136963 8.68631836 10.77773926 9.06201172 11.62915039 C10.28965153 14.44795443 11.46826759 17.28439456 12.64453125 20.125 C13.10424316 21.20894043 13.56395508 22.29288086 14.03759766 23.40966797 C15.46717672 26.78642394 16.87369719 30.17166622 18.26953125 33.5625 C18.71981689 34.64595703 19.17010254 35.72941406 19.6340332 36.84570312 C20.04226318 37.86470703 20.45049316 38.88371094 20.87109375 39.93359375 C21.23799316 40.83907959 21.60489258 41.74456543 21.98291016 42.67749023 C22.69239363 45.30205547 22.56399091 46.60291701 21.64453125 49.125 C17.93256521 45.61562365 14.94273327 41.9708338 12.14453125 37.6875 C11.73162842 37.05859863 11.31872559 36.42969727 10.89331055 35.78173828 C6.98065988 29.75090157 3.19030347 23.6431603 -0.54296875 17.5 C-1.13207031 16.5519751 -1.72117187 15.6039502 -2.328125 14.62719727 C-3.13636719 13.27646118 -3.13636719 13.27646118 -3.9609375 11.8984375 C-4.44715576 11.09841309 -4.93337402 10.29838867 -5.43432617 9.47412109 C-6.57629165 6.56185187 -6.33429228 5.06486392 -5.35546875 2.125 C-3.35546875 0.125 -3.35546875 0.125 0 0 Z " fill="#FFFFFF" transform="translate(380.35546875,125.875)"/>
<path d="M0 0 C1 1 1 1 1.0625 4.5625 C1.041875 5.696875 1.02125 6.83125 1 8 C-7.84528253 12.59153987 -16.77901516 16.87811215 -25.9375 20.8125 C-27.23143677 21.37118774 -27.23143677 21.37118774 -28.55151367 21.94116211 C-42.81317035 28 -42.81317035 28 -47 28 C-47 27.01 -47 26.02 -47 25 C-45.16149665 23.37483833 -43.38622449 22.01083197 -41.375 20.625 C-40.77051025 20.20017334 -40.16602051 19.77534668 -39.54321289 19.33764648 C-31.11833538 13.54314653 -22.21621193 8.48222839 -13.36499023 3.37524414 C-11.68429053 2.39791562 -10.0322963 1.37047868 -8.40258789 0.31030273 C-5.22045995 -1.42513885 -3.42666273 -0.93454438 0 0 Z " fill="#FFFFFF" transform="translate(548,178)"/>
<path d="M0 0 C9.93688587 3.08015 19.37776016 6.70563985 28.78417969 11.13891602 C30.78473486 12.07881917 32.7941116 12.99777504 34.8046875 13.91601562 C36.09431866 14.51701043 37.38340369 15.11917887 38.671875 15.72265625 C39.8175293 16.25640869 40.96318359 16.79016113 42.14355469 17.34008789 C44.98252256 18.98984367 46.40783155 20.15557618 48 23 C47.875 25.625 47.875 25.625 47 28 C44 30 44 30 41.8359375 29.93359375 C37.71550696 28.57714348 34.28288352 26.36613042 30.625 24.0625 C29.83569092 23.57177002 29.04638184 23.08104004 28.2331543 22.57543945 C6.62056078 9.06295878 6.62056078 9.06295878 -1 2 C-0.67 1.34 -0.34 0.68 0 0 Z " fill="#FFFFFF" transform="translate(501,273)"/>
<path d="M0 0 C0.66 0 1.32 0 2 0 C4.15978456 5.96005399 5.67279512 11.75530851 6.640625 18.015625 C6.7719281 18.83448181 6.9032312 19.65333862 7.03851318 20.49700928 C7.31106342 22.21062031 7.5797649 23.92484766 7.84472656 25.63964844 C8.25143782 28.25926093 8.67574631 30.87562044 9.1015625 33.4921875 C9.36564121 35.16650016 9.6286983 36.84097434 9.890625 38.515625 C10.0176178 39.2927887 10.1446106 40.06995239 10.27545166 40.8706665 C10.86821084 44.79333436 11.36678671 48.21708711 10 52 C7 54 7 54 4.4375 53.75 C2 53 2 53 0 51 C-1.67618321 40.45269624 -1.10134669 29.40858037 -1.125 18.75 C-1.12767883 18.05379547 -1.13035767 17.35759094 -1.13311768 16.64028931 C-1.13897282 14.62999306 -1.13603792 12.61967718 -1.1328125 10.609375 C-1.13168457 9.43342773 -1.13055664 8.25748047 -1.12939453 7.04589844 C-1.02127146 4.50072224 -0.74936413 2.41850389 0 0 Z " fill="#FFFFFF" transform="translate(442,312)"/>
<path d="M0 0 C2.75 1.125 2.75 1.125 4.75 4.125 C4.82907102 6.97155664 4.2295643 8.57248789 2.36328125 10.72265625 C1.23883911 11.83193737 0.09514924 12.92217915 -1.0703125 13.98828125 C-2.97020274 15.85071845 -4.68372502 17.75183454 -6.41796875 19.765625 C-10.57066039 24.55349272 -14.97192455 29.0674731 -19.4375 33.5625 C-20.23091797 34.37654297 -21.02433594 35.19058594 -21.84179688 36.02929688 C-22.60943359 36.80208984 -23.37707031 37.57488281 -24.16796875 38.37109375 C-24.85656982 39.06904053 -25.5451709 39.7669873 -26.25463867 40.48608398 C-28.31182731 42.17578267 -29.64748565 42.72917894 -32.25 43.125 C-30.8835591 33.22273998 -21.90613812 24.20426079 -16.125 16.3125 C-15.53952393 15.51247559 -14.95404785 14.71245117 -14.35083008 13.88818359 C-11.64296753 10.22507592 -8.89574559 6.59470043 -6.0234375 3.05859375 C-5.56630371 2.49325928 -5.10916992 1.9279248 -4.63818359 1.34545898 C-3.25 0.125 -3.25 0.125 0 0 Z " fill="#FFFFFF" transform="translate(515.25,139.875)"/>
<path d="M0 0 C3.13553406 1.34034918 4.72467236 2.58818434 6.59375 5.4296875 C7.29516113 6.48494629 7.29516113 6.48494629 8.01074219 7.56152344 C8.7479248 8.70669434 8.7479248 8.70669434 9.5 9.875 C10.0146582 10.66422852 10.52931641 11.45345703 11.05957031 12.26660156 C12.7217613 14.83489303 14.36316919 17.41548027 16 20 C16.57041016 20.89428711 17.14082031 21.78857422 17.72851562 22.70996094 C19.42091376 25.37889005 21.08958993 28.06107479 22.75 30.75 C23.27529297 31.58257324 23.80058594 32.41514648 24.34179688 33.27294922 C28.9211179 40.82268217 28.9211179 40.82268217 28 46 C26 48 26 48 23.1875 48.625 C20 48 20 48 18.79052734 46.62182617 C15.1211662 40.54518214 12.25009544 34.19820983 9.4375 27.6875 C8.96892578 26.62337891 8.50035156 25.55925781 8.01757812 24.46289062 C0 6.08413462 0 6.08413462 0 0 Z " fill="#FFFFFF" transform="translate(470,304)"/>
<path d="M0 0 C5.2205239 1.42962039 9.0230149 3.78939996 13.375 6.875 C14.06182861 7.35461182 14.74865723 7.83422363 15.45629883 8.32836914 C22.53368921 13.30577728 29.48828337 18.45980561 36.34692383 23.734375 C37.86004214 24.89284573 39.39392206 26.02406808 40.9296875 27.15234375 C43 29 43 29 43.4375 32.125 C43 35 43 35 41 37 C38.27734375 37.47265625 38.27734375 37.47265625 35 37 C32.60019827 35.20677392 30.65175169 33.53668425 28.5625 31.4375 C27.70555542 30.61149292 27.70555542 30.61149292 26.83129883 29.76879883 C25.20497823 28.19436483 23.59897149 26.60214615 22 25 C20.95199219 23.95585937 20.95199219 23.95585937 19.8828125 22.890625 C18.78505665 21.78781036 17.69225794 20.68002974 16.60546875 19.56640625 C14.81271267 17.81726954 12.9212264 16.23151122 11 14.625 C6.71502012 10.93422631 3.09052963 6.74203141 0 2 C0 1.34 0 0.68 0 0 Z " fill="#FFFFFF" transform="translate(492,285)"/>
<path d="M0 0 C-3.21991134 4.59165929 -6.82717681 7.15141086 -11.5 10.0625 C-12.23250977 10.52567627 -12.96501953 10.98885254 -13.71972656 11.46606445 C-16.13989053 12.98818814 -18.56977027 14.49400822 -21 16 C-22.32161133 16.82999512 -22.32161133 16.82999512 -23.66992188 17.67675781 C-26.35513806 19.36055992 -29.05053596 21.02665426 -31.75 22.6875 C-32.59498047 23.21674072 -33.43996094 23.74598145 -34.31054688 24.29125977 C-35.5103418 25.01913696 -35.5103418 25.01913696 -36.734375 25.76171875 C-37.43788086 26.19444092 -38.14138672 26.62716309 -38.86621094 27.07299805 C-41.41800473 28.18159771 -43.24372431 28.24648456 -46 28 C-47.875 26.875 -47.875 26.875 -49 25 C-48.9921875 22.12109375 -48.9921875 22.12109375 -48 19 C-45.68900735 17.36778251 -43.79848955 16.30896971 -41.25 15.1875 C-40.55350342 14.86056152 -39.85700684 14.53362305 -39.1394043 14.19677734 C-36.77243886 13.09996023 -34.38984718 12.04599109 -32 11 C-31.09781738 10.60280762 -30.19563477 10.20561523 -29.26611328 9.79638672 C-23.90009523 7.44498555 -18.51881553 5.13213432 -13.1105957 2.87939453 C-11.43365103 2.18068375 -9.76261635 1.46779198 -8.09375 0.75 C-5.34188486 -0.23574274 -2.89683178 -0.13473636 0 0 Z " fill="#FFFFFF" transform="translate(372,273)"/>
<path d="M0 0 C9.33619816 0.38291894 18.11069111 2.15375158 27.15698242 4.32861328 C29.45530502 4.87926589 31.75746135 5.41106964 34.06054688 5.94140625 C35.53932481 6.29055757 37.0178505 6.64077933 38.49609375 6.9921875 C39.17635117 7.14855682 39.85660858 7.30492615 40.55747986 7.46603394 C44.8376346 8.51147509 48.81747825 9.81747825 52 13 C52.3125 15.375 52.3125 15.375 52 18 C50.28466797 19.72509766 50.28466797 19.72509766 48 21 C45.69970703 20.82568359 45.69970703 20.82568359 43.1328125 20.0234375 C41.6772998 19.57049316 41.6772998 19.57049316 40.19238281 19.10839844 C34.36308845 17.08446173 28.61076567 14.89963376 22.875 12.625 C21.66457031 12.15578125 20.45414063 11.6865625 19.20703125 11.203125 C12.51282182 8.56623293 6.1605594 5.72720953 0 2 C0 1.34 0 0.68 0 0 Z " fill="#FFFFFF" transform="translate(506,260)"/>
<path d="M0 0 C1 1 1 1 1.0625 4.5625 C1.041875 5.696875 1.02125 6.83125 1 8 C-3.72302258 10.15202391 -8.16189971 11.66078299 -13.25390625 12.7890625 C-13.91784897 12.9378183 -14.58179169 13.0865741 -15.26585388 13.23983765 C-17.36337788 13.70794122 -19.46287484 14.16642503 -21.5625 14.625 C-22.97343882 14.93951469 -24.38424741 15.25461424 -25.79492188 15.5703125 C-34.29868305 17.46075984 -42.27435318 19.15044219 -51 19 C-51 18.34 -51 17.68 -51 17 C-41.76098111 12.25082011 -32.19158655 8.39895527 -22.47125244 4.76260376 C-21.11944895 4.25571295 -19.7694449 3.74399614 -18.42132568 3.22738647 C-16.49309496 2.49090328 -14.55857145 1.77424616 -12.62109375 1.0625 C-11.4911499 0.64097656 -10.36120605 0.21945313 -9.19702148 -0.21484375 C-5.69986753 -1.07370951 -3.46164816 -0.90362131 0 0 Z " fill="#FFFFFF" transform="translate(557,200)"/>
<path d="M0 0 C3.1875 0.875 3.1875 0.875 6 2 C7.269601 7.078404 6.62004758 10.04110295 4.71875 14.875 C4.46758423 15.52138428 4.21641846 16.16776855 3.9576416 16.83374023 C3.42292345 18.20125662 2.88122245 19.56606066 2.33300781 20.92822266 C1.51585817 22.96055908 0.7209522 25.00043629 -0.0703125 27.04296875 C-3.56604666 35.96065793 -7.57346913 44.50530807 -12 53 C-12.66 52.67 -13.32 52.34 -14 52 C-13.52533308 44.12747545 -11.93428728 36.63560064 -10.09863281 28.97753906 C-9.62617369 27.00490047 -9.16388818 25.03008711 -8.703125 23.0546875 C-7.36944123 17.41217923 -6.00103021 11.77761488 -4.4609375 6.1875 C-4.25001465 5.41792969 -4.0390918 4.64835937 -3.82177734 3.85546875 C-3 2 -3 2 0 0 Z " fill="#FFFFFF" transform="translate(471,117)"/>
<path d="M0 0 C-4.05465113 13.61488246 -15.50261113 25.80396532 -24 37 C-24.6947644 37.94431885 -24.6947644 37.94431885 -25.40356445 38.90771484 C-26.6875 40.578125 -26.6875 40.578125 -29 43 C-32.8125 42.875 -32.8125 42.875 -36 42 C-36.89453125 38.95703125 -36.89453125 38.95703125 -37 35 C-35.34250102 32.13363073 -33.0528428 29.98223555 -30.6875 27.6875 C-30.02339111 27.01323975 -29.35928223 26.33897949 -28.67504883 25.64428711 C-27.23627891 24.18922233 -25.78818643 22.7433304 -24.33203125 21.30566406 C-21.88723254 18.88850755 -19.47307898 16.44344736 -17.0625 13.9921875 C-13.91966662 10.80942531 -10.77393048 7.62992571 -7.60546875 4.47265625 C-6.95731201 3.82562744 -6.30915527 3.17859863 -5.64135742 2.51196289 C-3.69926938 0.72297713 -2.66355165 0 0 0 Z " fill="#FFFFFF" transform="translate(390,295)"/>
<path d="M0 0 C3.7833672 0 5.98481926 0.17251669 8.96484375 2.6015625 C10.32659307 3.99836675 11.66798773 5.41520441 12.9921875 6.84765625 C14.7685525 8.75189188 16.56569269 10.39849391 18.5625 12.0625 C22.86299842 15.75972209 26.86126081 19.74766213 30.875 23.75 C31.54217041 24.41265869 32.20934082 25.07531738 32.89672852 25.75805664 C33.52635498 26.3896167 34.15598145 27.02117676 34.8046875 27.671875 C35.37171387 28.2400293 35.93874023 28.80818359 36.52294922 29.39355469 C38 31 38 31 40 34 C39.67 34.99 39.34 35.98 39 37 C28.33203368 31.24766522 18.6973536 24.23235787 9 17 C8.42282227 16.57444824 7.84564453 16.14889648 7.25097656 15.71044922 C-1.58529425 9.1678369 -1.58529425 9.1678369 -3 4 C-1.625 1.6875 -1.625 1.6875 0 0 Z " fill="#FFFFFF" transform="translate(340,156)"/>
<path d="M0 0 C3.625 0.375 3.625 0.375 7 1 C9.99500477 10.15418016 12.31810218 19.31721318 14.25 28.75 C14.518125 29.99910156 14.78625 31.24820313 15.0625 32.53515625 C16.43374061 39.16048713 17.3221419 45.23502011 17 52 C16.34 52 15.68 52 15 52 C10.40096667 43.04559073 6.67686075 33.84327078 3.24578857 24.38269043 C2.57114777 22.52382751 1.88646567 20.66861887 1.20166016 18.81347656 C0.57783447 17.06502441 0.57783447 17.06502441 -0.05859375 15.28125 C-0.43298584 14.24033203 -0.80737793 13.19941406 -1.19311523 12.12695312 C-2.10290453 8.60120992 -2.27639499 5.62682822 -2 2 C-1.34 1.34 -0.68 0.68 0 0 Z " fill="#FFFFFF" transform="translate(399,117)"/>
<path d="M0 0 C0.66 0 1.32 0 2 0 C2.39755766 7.35481667 0.90885254 13.9816064 -0.75 21.125 C-1.02368408 22.32318359 -1.29736816 23.52136719 -1.5793457 24.75585938 C-7.22971995 49.2103736 -7.22971995 49.2103736 -11 52 C-14.34192692 51.75546876 -15.60543557 51.39456443 -18 49 C-18.54598989 44.02349629 -17.18044418 40.08405547 -15.33203125 35.546875 C-15.05534103 34.84661194 -14.77865082 34.14634888 -14.49357605 33.42486572 C-13.90736676 31.94717155 -13.31622601 30.47142529 -12.72045898 28.99755859 C-11.82253032 26.77482903 -10.9402617 24.54639824 -10.06054688 22.31640625 C-7.03361212 14.69907301 -3.86814825 7.23882101 0 0 Z " fill="#FFFFFF" transform="translate(413,309)"/>
<path d="M0 0 C1.23828125 1.67675781 1.23828125 1.67675781 0.98828125 4.80175781 C0.23828125 7.67675781 0.23828125 7.67675781 -0.76171875 8.67675781 C-6.54127325 9.77870751 -12.20116545 9.80711597 -18.0703125 9.77441406 C-19.03703384 9.77299911 -20.00375519 9.77158417 -20.99977112 9.77012634 C-24.06628607 9.76456002 -27.13272613 9.75201381 -30.19921875 9.73925781 C-32.28710832 9.73423846 -34.37499903 9.72967631 -36.46289062 9.72558594 C-41.56252855 9.71460163 -46.66211098 9.69736037 -51.76171875 9.67675781 C-52.09171875 8.68675781 -52.42171875 7.69675781 -52.76171875 6.67675781 C-42.8368697 4.11022188 -32.88107857 2.07553944 -22.76171875 0.42675781 C-21.18789429 0.16427246 -21.18789429 0.16427246 -19.58227539 -0.10351562 C-3.51836974 -2.64267794 -3.51836974 -2.64267794 0 0 Z " fill="#FFFFFF" transform="translate(561.76171875,224.3232421875)"/>
<path d="M0 0 C0.928125 0.45375 1.85625 0.9075 2.8125 1.375 C3.78889431 4.30418293 3.93386181 6.16525738 3.92602539 9.21362305 C3.92594986 10.1944133 3.92587433 11.17520355 3.92579651 12.18571472 C3.92063522 13.24204605 3.91547394 14.29837738 3.91015625 15.38671875 C3.9087413 16.47008011 3.90732635 17.55344147 3.90586853 18.66963196 C3.90026559 22.13394925 3.88771258 25.5982022 3.875 29.0625 C3.86998538 31.40950428 3.86542241 33.75650956 3.86132812 36.10351562 C3.85029521 41.86069908 3.8335542 47.61784494 3.8125 53.375 C2.8225 53.375 1.8325 53.375 0.8125 53.375 C-1.73665399 42.88007878 -3.77965664 32.36118296 -5.4375 21.6875 C-5.61249023 20.57777832 -5.78748047 19.46805664 -5.96777344 18.32470703 C-7.57809301 7.66970521 -7.57809301 7.66970521 -7.1875 2.375 C-4.78066567 -0.67982819 -3.82182994 -0.74937842 0 0 Z " fill="#FFFFFF" transform="translate(427.1875,112.625)"/>
<path d="M0 0 C4.18127047 0.31692365 7.59736067 1.3914542 11.43505859 2.9597168 C12.13627838 3.23640701 12.83749817 3.51309723 13.55996704 3.798172 C15.03621728 4.38353982 16.51018891 4.97468379 17.98193359 5.57128906 C20.20582522 6.47183925 22.43666795 7.35291764 24.66943359 8.23120117 C32.00031883 11.14308755 39.11393406 14.13541305 45.84912109 18.29174805 C45.84912109 18.62174805 45.84912109 18.95174805 45.84912109 19.29174805 C37.02057448 19.78394262 29.13011586 18.58655013 20.56591797 16.46582031 C18.5906243 15.977146 16.61131143 15.50889981 14.63037109 15.04370117 C-2.52212099 10.92050596 -2.52212099 10.92050596 -5.15087891 8.29174805 C-5.33837891 5.35424805 -5.33837891 5.35424805 -5.15087891 2.29174805 C-3.15087891 0.29174805 -3.15087891 0.29174805 0 0 Z " fill="#FFFFFF" transform="translate(320.15087890625,197.708251953125)"/>
<path d="M0 0 C-2.43062734 2.81537106 -4.8313385 3.94986499 -8.26953125 5.3046875 C-9.3172168 5.72121582 -10.36490234 6.13774414 -11.44433594 6.56689453 C-12.55583008 6.99856934 -13.66732422 7.43024414 -14.8125 7.875 C-15.94075195 8.31827637 -17.06900391 8.76155273 -18.23144531 9.21826172 C-21.48344702 10.48999162 -24.74029812 11.74815744 -28 13 C-29.21985596 13.47083008 -29.21985596 13.47083008 -30.46435547 13.95117188 C-42.09389913 18.40742706 -42.09389913 18.40742706 -47 18 C-48.875 16.875 -48.875 16.875 -50 15 C-50.125 12 -50.125 12 -49 9 C-42.92072226 5.7605527 -36.23355089 4.36795628 -29.5625 2.8125 C-27.83990967 2.4100708 -27.83990967 2.4100708 -26.08251953 1.99951172 C-17.21520011 0.03826637 -9.0552829 -0.73864845 0 0 Z " fill="#FFFFFF" transform="translate(364,261)"/>
<path d="M0 0 C2.5 0.5 2.5 0.5 4.08203125 2.46875 C5.95220197 6.46669071 6.31102692 10.13594135 6.6875 14.5 C6.76790527 15.33635986 6.84831055 16.17271973 6.93115234 17.03442383 C7.54568456 23.87093094 7.72180509 30.6363646 7.5 37.5 C6.18 37.5 4.86 37.5 3.5 37.5 C2.16956729 33.7143923 0.86404814 29.92062585 -0.4375 26.125 C-0.81068359 25.06410156 -1.18386719 24.00320312 -1.56835938 22.91015625 C-6.13821815 9.48876921 -6.13821815 9.48876921 -5.5 3.5 C-3.709732 1.17059682 -2.9170135 0.5834027 0 0 Z " fill="#FFFFFF" transform="translate(422.5,160.5)"/>
<path d="M0 0 C7.4316963 1.88956634 13.78221468 4.72416469 20.4375 8.5 C21.32115234 8.98597656 22.20480469 9.47195313 23.11523438 9.97265625 C30.61709883 14.16000873 30.61709883 14.16000873 33 17 C33.4318188 19.87879197 33.37957373 21.36737712 31.875 23.875 C30 25 30 25 27.41015625 24.984375 C22.50892733 23.56958727 19.38459074 20.66652642 15.5625 17.375 C14.83740234 16.77042969 14.11230469 16.16585938 13.36523438 15.54296875 C2.97962973 6.79032081 2.97962973 6.79032081 0 3 C0 2.01 0 1.02 0 0 Z " fill="#FFFFFF" transform="translate(470,261)"/>
<path d="M0 0 C3.60549148 2.66492848 4.84539972 4.03804272 5.5625 8.5 C4.91877781 12.50538252 3.84054174 14.15945826 1 17 C-1.82001327 18.41000664 -3.87007255 18.24548451 -7 18 C-9.75 16.9375 -9.75 16.9375 -12 15 C-13.54991142 11.36107754 -14.28029855 9.12119421 -13.3125 5.25 C-9.99436754 -0.43822708 -6.43216852 -1.80100719 0 0 Z " fill="#FFFFFF" transform="translate(1955,164)"/>
<path d="M0 0 C2 2 2 2 2.25 5 C2 8 2 8 0 10 C-7.91110427 11.88747996 -15.9006756 12.29216 -24 12 C-24 9.69 -24 7.38 -24 5 C-21.31578673 4.1545785 -18.62843232 3.32352767 -15.9375 2.5 C-15.18533203 2.26152344 -14.43316406 2.02304688 -13.65820312 1.77734375 C-8.99792097 0.36513704 -4.92549052 -0.45176474 0 0 Z " fill="#FFFFFF" transform="translate(512,220)"/>
<path d="M0 0 C1.98 0 3.96 0 6 0 C8.03627966 6.10883897 10.45785371 14.03518289 8.1640625 20.2734375 C7 22 7 22 4.625 22.9375 C2 23 2 23 -0.17578125 22 C-2 20 -2 20 -2.20703125 16.34765625 C-2.09681265 14.91747034 -1.96445726 13.4888551 -1.8125 12.0625 C-1.75513672 11.34642578 -1.69777344 10.63035156 -1.63867188 9.89257812 C-1.347822 6.51809409 -0.97582239 3.24991283 0 0 Z " fill="#FFFFFF" transform="translate(433,261)"/>
<path d="M0 0 C3.07921132 -0.25660094 5.21136993 -0.39431504 8 1 C9.21356329 5.65199261 8.8518605 9.59786374 8.125 14.3125 C7.94195312 15.54613281 7.75890625 16.77976563 7.5703125 18.05078125 C7 21 7 21 6 22 C4.00041636 22.04080783 1.99954746 22.04254356 0 22 C-1.31644211 15.6058526 -2.46708462 9.53918474 -2 3 C-1.34 2.01 -0.68 1.02 0 0 Z " fill="#FFFFFF" transform="translate(433,195)"/>
<path d="M0 0 C2.10353495 -0.0810206 4.20795952 -0.13919907 6.3125 -0.1875 C7.48425781 -0.22230469 8.65601563 -0.25710938 9.86328125 -0.29296875 C13 0 13 0 14.8984375 1.3203125 C16.59173815 3.90229576 16.31931621 5.99842759 16 9 C14 11 14 11 10.8125 11.1875 C5.31330989 9.47463751 3.00977764 5.75709535 0 1 C0 0.67 0 0.34 0 0 Z " fill="#FFFFFF" transform="translate(453,261)"/>
<path d="M0 0 C1.77503906 0.03480469 1.77503906 0.03480469 3.5859375 0.0703125 C5.36871094 0.09738281 5.36871094 0.09738281 7.1875 0.125 C8.10273438 0.14820313 9.01796875 0.17140625 9.9609375 0.1953125 C8.23259331 5.00354967 6.07149052 8.14783354 1.9609375 11.1953125 C-0.7265625 11.8203125 -0.7265625 11.8203125 -3.0390625 11.1953125 C-4.9140625 9.5078125 -4.9140625 9.5078125 -6.0390625 7.1953125 C-5.71498096 2.65817098 -4.85905721 0.31227874 0 0 Z " fill="#FFFFFF" transform="translate(409.0390625,260.8046875)"/>
<path d="M0 0 C3.60652926 0.54337664 4.64416858 2.01194046 6.95703125 4.7734375 C7.65441406 5.58554688 8.35179687 6.39765625 9.0703125 7.234375 C10.64453125 9.3984375 10.64453125 9.3984375 10.64453125 11.3984375 C8.54148648 11.5064398 6.43686216 11.58402737 4.33203125 11.6484375 C2.57439453 11.71804687 2.57439453 11.71804687 0.78125 11.7890625 C-2.35546875 11.3984375 -2.35546875 11.3984375 -4.28515625 9.546875 C-5.35546875 7.3984375 -5.35546875 7.3984375 -5.16796875 4.7734375 C-4.10444616 1.66467915 -3.29084528 0.5566604 0 0 Z " fill="#FFFFFF" transform="translate(408.35546875,205.6015625)"/>
<path d="M0 0 C2.75 0.875 2.75 0.875 3.75 1.875 C4.2103413 7.16892491 4.2103413 7.16892491 2.65234375 9.55859375 C-0.18696608 11.52337283 -2.53441648 11.16358169 -5.9375 11.0625 C-7.70673828 11.02189453 -7.70673828 11.02189453 -9.51171875 10.98046875 C-10.41535156 10.94566406 -11.31898438 10.91085938 -12.25 10.875 C-5.29366812 -0.20360262 -5.29366812 -0.20360262 0 0 Z " fill="#FFFFFF" transform="translate(465.25,206.125)"/>
</svg>
