<?xml version="1.0" encoding="UTF-8"?>
<svg version="1.1" xmlns="http://www.w3.org/2000/svg" width="500" height="332">
<path d="M0 0 C165 0 330 0 500 0 C500 109.56 500 219.12 500 332 C335 332 170 332 0 332 C0 222.44 0 112.88 0 0 Z " fill="#1A1E89" transform="translate(0,0)"/>
<path d="M0 0 C8.34615385 1.19230769 8.34615385 1.19230769 13 5 C15.44618898 8.28970242 16.27514333 11.01661336 17 15 C27.00887894 15.62277469 36.96588331 16.17707265 47 16 C47.24363281 15.38382813 47.48726562 14.76765625 47.73828125 14.1328125 C50.42176037 9.59665275 56.75785472 8.44362331 61.5 6.75 C65.65607863 5.85941172 69.79666344 5.12368602 74 6 C75.02673828 7.05574219 75.02673828 7.05574219 76.07421875 8.1328125 C80.12548591 10.71826738 82.54790943 9.83642883 87.12695312 8.9296875 C88.64192383 8.59324219 88.64192383 8.59324219 90.1875 8.25 C108.37809697 4.41541742 108.37809697 4.41541742 115 7.3125 C117 9 117 9 119 12 C119 13.32 119 14.64 119 16 C117.69906906 16.00213753 117.69906906 16.00213753 116.37185669 16.00431824 C108.16309744 16.02221314 99.95487278 16.06401797 91.74637032 16.13209057 C87.52713156 16.166253 83.30825075 16.19145368 79.08886719 16.19555664 C75.01012368 16.19986287 70.93218616 16.22851559 66.85369492 16.27343178 C65.30458156 16.2863331 63.75537138 16.2907408 62.20621109 16.28615379 C60.02088676 16.28119427 57.83787081 16.30756681 55.65283203 16.34057617 C54.41373077 16.34723801 53.17462952 16.35389984 51.89797974 16.36076355 C46.75001024 17.00713348 46.75001024 17.00713348 38 22 C49.88 22 61.76 22 74 22 C74.495 25.465 74.495 25.465 75 29 C73 31 73 31 69.75390625 31.23046875 C68.35670005 31.22775606 66.95948447 31.21253837 65.5625 31.1875 C64.45177124 31.17783203 64.45177124 31.17783203 63.31860352 31.16796875 C54.53468266 31.05076434 45.76644492 30.53888136 37 30 C37.69037354 30.34256836 38.38074707 30.68513672 39.09204102 31.03808594 C42.24993378 32.60657397 45.40622505 34.17825914 48.5625 35.75 C49.64853516 36.28882813 50.73457031 36.82765625 51.85351562 37.3828125 C54.91039858 38.90660826 57.95851205 40.4457247 61 42 C61.75966064 42.38720215 62.51932129 42.7744043 63.30200195 43.17333984 C67.87051043 45.61914832 67.87051043 45.61914832 69.0625 49.125 C69 52 69 52 67 54 C61.75819966 54.71534715 58.66276009 52.98574553 54.5078125 50.0625 C53.62160721 49.46320679 53.62160721 49.46320679 52.71749878 48.85180664 C50.84421465 47.58067282 48.98474096 46.29084504 47.125 45 C45.8524282 44.13154261 44.57899861 43.26434074 43.3046875 42.3984375 C40.19300663 40.2800311 37.09356259 38.14476866 34 36 C35.60888194 39.45082382 37.61322665 42.52270928 39.73046875 45.68359375 C40.45041016 46.77607422 41.17035156 47.86855469 41.91210938 48.99414062 C43.05058477 50.72166078 44.19305104 52.44573616 45.34936523 54.16137695 C46.46924939 55.82632694 47.56890554 57.50482663 48.66796875 59.18359375 C49.33078857 60.17931396 49.9936084 61.17503418 50.67651367 62.20092773 C52 65 52 65 51.83325195 67.73852539 C51 70 51 70 49 72 C46.61328125 72.00390625 46.61328125 72.00390625 44 71 C42.04296875 68.40234375 42.04296875 68.40234375 40.1875 64.9375 C39.85492188 64.32567871 39.52234375 63.71385742 39.1796875 63.08349609 C38.0952951 61.06752127 37.04342048 59.03746775 36 57 C35.62311035 56.26442871 35.2462207 55.52885742 34.85791016 54.77099609 C32.52985993 50.20082706 30.25767307 45.60527011 28 41 C28.01047363 42.04978027 28.02094727 43.09956055 28.03173828 44.18115234 C28.06788453 48.06865033 28.09088078 51.95613341 28.10986328 55.84375 C28.11993317 57.52769466 28.13358988 59.21162179 28.15087891 60.89550781 C28.17508426 63.31319501 28.18647296 65.73065143 28.1953125 68.1484375 C28.20563507 68.9036972 28.21595764 69.65895691 28.22659302 70.43710327 C28.22699318 72.2929398 28.12222716 74.1481928 28 76 C27.01 76.99 27.01 76.99 26 78 C20.43181818 77.43181818 20.43181818 77.43181818 19 76 C18.91148471 73.40640678 18.88474055 70.83960309 18.90234375 68.24609375 C18.9037587 67.47064713 18.90517365 66.6952005 18.90663147 65.89625549 C18.91224655 63.40996506 18.92480154 60.9237634 18.9375 58.4375 C18.94251306 56.75586067 18.9470763 55.07421994 18.95117188 53.39257812 C18.96222087 49.26168434 18.97949555 45.13085724 19 41 C18.38741333 42.24873901 18.38741333 42.24873901 17.76245117 43.52270508 C16.24093376 46.61693962 14.71400441 49.70837752 13.18334961 52.7980957 C12.52263765 54.13458367 11.86408605 55.47214195 11.20776367 56.81079102 C10.26269657 58.73741153 9.30986597 60.66001897 8.35546875 62.58203125 C7.78465576 63.73936768 7.21384277 64.8967041 6.62573242 66.08911133 C5.24749903 68.55685074 4.21517953 70.28005467 2 72 C1.34 72 0.68 72 0 72 C0 48.24 0 24.48 0 0 Z " fill="#3277CB" transform="translate(0,150)"/>
<path d="M0 0 C0.82251251 0.00245728 1.64502502 0.00491455 2.49246216 0.00744629 C4.84285885 0.02000098 7.19274329 0.04356723 9.54296875 0.07421875 C10.6212645 0.08557106 10.6212645 0.08557106 11.72134399 0.09715271 C16.69293467 0.19293467 16.69293467 0.19293467 17.8125 1.3125 C17.85330783 3.31208364 17.85504356 5.31295254 17.8125 7.3125 C17.13485596 7.34690186 16.45721191 7.38130371 15.7590332 7.41674805 C-28.29357912 9.81232472 -67.1715656 25.71557827 -99.66796875 55.98046875 C-101.81719108 57.96974896 -104.00811528 59.86753568 -106.25 61.75 C-118.52037431 72.50213327 -127.79093669 86.09911771 -137.1875 99.3125 C-142.51364582 96.98531016 -146.15182496 93.22503268 -149.1875 88.3125 C-150.27404647 84.06103868 -150.49853095 80.51098372 -149.1875 76.3125 C-147.10143165 73.4057407 -144.67257445 70.88001075 -142.1875 68.3125 C-141.50067139 67.58361572 -140.81384277 66.85473145 -140.10620117 66.10375977 C-112.86236786 37.4624911 -77.86960578 14.22644931 -39.1875 4.3125 C-38.55553711 4.13203125 -37.92357422 3.9515625 -37.27246094 3.765625 C-24.90947281 0.29860038 -12.74997482 -0.04061646 0 0 Z " fill="#327ACD" transform="translate(315.1875,48.6875)"/>
<path d="M0 0 C0 2.97 0 5.94 0 9 C-1.164104 8.84063965 -2.32820801 8.6812793 -3.52758789 8.51708984 C-54.79339542 2.13920213 -106.59710371 20.91415091 -147 52 C-149.79844862 54.23226765 -152.5670332 56.4905553 -155.3046875 58.796875 C-158.78755584 61.6437413 -162.38615913 64.322498 -166 67 C-169.1257742 41.75336224 -169.1257742 41.75336224 -164.40771484 34.57861328 C-159.93544052 30.53409396 -154.54036763 28.33875625 -148.96875 26.18457031 C-145.95214605 24.98090565 -143.10753807 23.59974642 -140.21875 22.1171875 C-100.10308448 1.61649082 -44.63199997 -14.87733332 0 0 Z " fill="#327ACD" transform="translate(333,36)"/>
<path d="M0 0 C0.3203125 2.78125 0.3203125 2.78125 0 6 C-2.1328125 7.84375 -2.1328125 7.84375 -5.125 9.5 C-16.4619121 16.50339422 -26.14109417 26.57942953 -33 38 C-33.33805664 38.54785156 -33.67611328 39.09570312 -34.02441406 39.66015625 C-43.26151362 54.73249843 -49.5472738 70.93121625 -54 88 C-50.04 88 -46.08 88 -42 88 C-41.79375 86.22625 -41.5875 84.4525 -41.375 82.625 C-37.18913433 55.95093187 -22.89773611 26.42330208 -1 10 C-0.67 10 -0.34 10 0 10 C1.2719963 18.65664149 -1.21287231 24.12261725 -5.76171875 31.25 C-11.08889073 39.84853606 -14.03872111 48.79341988 -16.1875 58.625 C-16.56865967 60.31665283 -16.56865967 60.31665283 -16.95751953 62.04248047 C-18.91321804 70.98263448 -20.26347222 79.88229398 -21 89 C-31.72279419 92.9316912 -43.53210873 95.53455236 -55 94 C-56.87109375 92.66796875 -56.87109375 92.66796875 -58 91 C-58 90.01 -58 89.02 -58 88 C-63.61 88 -69.22 88 -75 88 C-64.91256597 59.75518472 -36.69659896 0 0 0 Z " fill="#3279CD" transform="translate(333,78)"/>
<path d="M0 0 C2.87604609 -0.00218563 5.75170688 -0.02040995 8.62768555 -0.03930664 C23.11397258 -0.08433714 37.36232947 0.60009422 51.45385742 4.24780273 C52.51733398 4.50787109 52.51733398 4.50787109 53.60229492 4.77319336 C56.46922621 5.48178149 59.27630066 6.25111715 62.07885742 7.18530273 C62.07885742 10.81530273 62.07885742 14.44530273 62.07885742 18.18530273 C60.69698242 17.89655273 59.31510742 17.60780273 57.89135742 17.31030273 C55.95467726 16.93109146 54.01712049 16.5563385 52.07885742 16.18530273 C51.18368408 16.00829834 50.28851074 15.83129395 49.36621094 15.64892578 C39.31437545 13.87110178 29.37688763 13.82856062 19.20385742 13.87280273 C17.83809067 13.87653397 17.83809067 13.87653397 16.44473267 13.88034058 C-23.37345511 14.04858582 -59.23759772 24.60832944 -95.26245117 41.05957031 C-98.08812711 42.25600665 -101.01007508 43.2149469 -103.92114258 44.18530273 C-103.92114258 35.93530273 -103.92114258 27.68530273 -103.92114258 19.18530273 C-70.51985815 5.82478896 -35.8421698 -0.00303824 0 0 Z " fill="#327ACD" transform="translate(270.921142578125,11.814697265625)"/>
<path d="M0 0 C0 1.65 0 3.3 0 5 C-0.91942383 5.18006592 -0.91942383 5.18006592 -1.85742188 5.36376953 C-47.81130192 14.49783357 -82.90526781 40.01931878 -109.125 78.8125 C-114.72429971 87.21462223 -119.47891833 95.9806704 -124 105 C-130.82556128 105.7275979 -135.6986316 105.90036698 -141.25 101.5 C-142.52496534 100.36066927 -143.78482683 99.2028987 -145 98 C-131.91935447 61.16207395 -91.16352019 28.87486846 -57.67822266 12.26611328 C-50.64149916 8.93954555 -43.43784745 6.27642717 -36 4 C-35.28537598 3.77844238 -34.57075195 3.55688477 -33.83447266 3.32861328 C-22.50645875 -0.06433098 -11.76915994 -0.46508206 0 0 Z " fill="#327ACD" transform="translate(333,61)"/>
<path d="M0 0 C4.55555556 0.55555556 4.55555556 0.55555556 6 2 C6.08855161 4.6662603 6.11524673 7.30647114 6.09765625 9.97265625 C6.0962413 10.77029892 6.09482635 11.56794159 6.09336853 12.38975525 C6.08775316 14.94737435 6.07519812 17.50490718 6.0625 20.0625 C6.05748698 21.79231645 6.05292373 23.52213426 6.04882812 25.25195312 C6.03777875 29.50133553 6.02050386 33.75065312 6 38 C6.33733154 37.30962646 6.67466309 36.61925293 7.0222168 35.90795898 C8.57083961 32.74792062 10.12907573 29.59271538 11.6875 26.4375 C12.21794922 25.35146484 12.74839844 24.26542969 13.29492188 23.14648438 C16.13874323 17.4065014 18.91413302 11.95639534 23 7 C25.6875 6.4375 25.6875 6.4375 28 7 C30 9 30 9 30.44140625 11.1171875 C29.77147577 15.49248567 27.40806164 18.51874142 24.9375 22.125 C23.92934921 23.63649317 22.92153721 25.14821236 21.9140625 26.66015625 C21.4180957 27.39637207 20.92212891 28.13258789 20.41113281 28.89111328 C18.49658759 31.75233156 16.65171686 34.65229884 14.8125 37.5625 C14.26207031 38.43003906 13.71164063 39.29757812 13.14453125 40.19140625 C12.57798828 41.08666016 12.57798828 41.08666016 12 42 C13.47981766 41.06352792 14.95878128 40.12570638 16.4375 39.1875 C17.42878906 38.56101562 18.42007813 37.93453125 19.44140625 37.2890625 C22.10123615 35.59344966 24.72379741 33.84829045 27.33984375 32.0859375 C28.08886963 31.58682861 28.83789551 31.08771973 29.60961914 30.57348633 C31.10322904 29.5772635 32.59089261 28.57205907 34.07202148 27.55737305 C37.08731712 25.5584692 39.27294674 24.11132387 42.8828125 23.55859375 C45 24 45 24 47 26 C47.36108398 28.44091797 47.36108398 28.44091797 47 31 C45.43774414 32.59423828 45.43774414 32.59423828 43.22265625 33.9453125 C41.98926514 34.69989746 41.98926514 34.69989746 40.73095703 35.46972656 C36.04114971 38.09762861 31.26953964 40.52084518 26.4375 42.875 C21.2709375 45.411875 21.2709375 45.411875 16 48 C27.88 48 39.76 48 52 48 C52.99 49.98 52.99 49.98 54 52 C19.68 52 -14.64 52 -50 52 C-49.34 50.68 -48.68 49.36 -48 48 C-36.12 48 -24.24 48 -12 48 C-20.32810086 43.89509506 -20.32810086 43.89509506 -28.6628418 39.80371094 C-29.70609619 39.28583008 -30.74935059 38.76794922 -31.82421875 38.234375 C-32.88729248 37.71069336 -33.95036621 37.18701172 -35.0456543 36.64746094 C-38.00739391 34.99587686 -40.5000181 33.29048621 -43 31 C-43.4375 28.375 -43.4375 28.375 -43 26 C-41 24 -41 24 -38.7746582 23.62890625 C-35.07847141 24.12324887 -32.59543887 25.85310726 -29.60546875 27.9375 C-29.01325027 28.33702881 -28.4210318 28.73655762 -27.81086731 29.14819336 C-25.9288866 30.42144284 -24.05826721 31.71034632 -22.1875 33 C-20.91022285 33.86824416 -19.63223515 34.73544402 -18.35351562 35.6015625 C-15.2273157 37.72236427 -12.11120468 39.8572674 -9 42 C-10.10919751 38.67240746 -11.65464332 36.33505468 -13.59765625 33.4140625 C-14.31630859 32.31835938 -15.03496094 31.22265625 -15.77539062 30.09375 C-16.91816934 28.35686389 -18.0641888 26.62247161 -19.21899414 24.89355469 C-20.33466099 23.21969675 -21.43511138 21.53572823 -22.53515625 19.8515625 C-23.199104 18.84947754 -23.86305176 17.84739258 -24.54711914 16.81494141 C-26.07630194 13.85216579 -26.4951039 12.27497605 -26 9 C-24 7 -24 7 -21.6875 6.375 C-19 7 -19 7 -17.84594727 8.4309082 C-14.4454137 14.1224335 -11.30507443 19.92880544 -8.25 25.8125 C-7.75628906 26.75287109 -7.26257812 27.69324219 -6.75390625 28.66210938 C-3.13267423 35.60197732 -3.13267423 35.60197732 -2 39 C-2.01571045 37.33445068 -2.01571045 37.33445068 -2.03173828 35.63525391 C-2.06787949 31.52412121 -2.09087896 27.41300261 -2.10986328 23.30175781 C-2.11993431 21.52080933 -2.13359185 19.73987743 -2.15087891 17.95898438 C-2.17507913 15.40230217 -2.18647184 12.84583815 -2.1953125 10.2890625 C-2.20563507 9.49005524 -2.21595764 8.69104797 -2.22659302 7.86782837 C-2.22699226 5.9104278 -2.12241069 3.95356923 -2 2 C-1.34 1.34 -0.68 0.68 0 0 Z " fill="#3279CC" transform="translate(66,280)"/>
<path d="M0 0 C0 1.65 0 3.3 0 5 C-1.2375 5.38478516 -1.2375 5.38478516 -2.5 5.77734375 C-37.58753236 17.40792088 -62.88784309 45.08889543 -79.34716797 77.37963867 C-82.41117235 83.51419756 -85.21249505 89.72811387 -88 96 C-95.26 96 -102.52 96 -110 96 C-105.62860909 82.88582726 -97.99520781 71.19629666 -90 60 C-89.58943359 59.42427246 -89.17886719 58.84854492 -88.75585938 58.25537109 C-70.63336999 33.23349303 -46.26974125 13.2528689 -17 3 C-16.03964844 2.66097656 -15.07929688 2.32195312 -14.08984375 1.97265625 C-9.21947197 0.37858283 -5.11958354 -0.33388588 0 0 Z " fill="#3279CD" transform="translate(333,70)"/>
<path d="M0 0 C3.25 0.5625 3.25 0.5625 4.43920898 2.00488281 C4.80860596 2.64780273 5.17800293 3.29072266 5.55859375 3.953125 C5.9860791 4.68329834 6.41356445 5.41347168 6.85400391 6.16577148 C7.31468262 6.95669189 7.77536133 7.7476123 8.25 8.5625 C9.00482666 9.74017944 9.00482666 9.74017944 9.77490234 10.94165039 C18.70393454 24.90612973 23.61034456 38.13959875 21.14501953 54.87109375 C18.35667238 66.37131439 11.679105 82.133395 3.25 90.5625 C0.75 90.8125 0.75 90.8125 -1.75 90.5625 C-2.41 89.9025 -3.07 89.2425 -3.75 88.5625 C-3.50328899 83.23434453 -2.06990409 79.85116438 0.84765625 75.4453125 C1.56630859 74.34445312 2.28496094 73.24359375 3.02539062 72.109375 C3.78727765 70.96842748 4.54965333 69.82780612 5.3125 68.6875 C6.80728453 66.42181435 8.29590597 64.15214626 9.78515625 61.8828125 C10.449104 60.88523926 11.11305176 59.88766602 11.79711914 58.85986328 C13.33908273 56.87467551 13.33908273 56.87467551 13.25 55.5625 C12.31800781 56.1915625 11.38601562 56.820625 10.42578125 57.46875 C7.06699112 59.72877519 3.6952165 61.96852331 0.31591797 64.19775391 C-1.01042642 65.07393745 -2.33452699 65.95353253 -3.65576172 66.83740234 C-5.38596314 67.99040296 -7.1279685 69.12271762 -8.875 70.25 C-9.88820312 70.91386719 -10.90140625 71.57773437 -11.9453125 72.26171875 C-14.75 73.5625 -14.75 73.5625 -17.4921875 73.39453125 C-19.75 72.5625 -19.75 72.5625 -21.75 70.5625 C-21.66430664 68.12329102 -21.66430664 68.12329102 -20.75 65.5625 C-18.74389648 63.95678711 -18.74389648 63.95678711 -16.12109375 62.58984375 C-14.69120117 61.82897461 -14.69120117 61.82897461 -13.23242188 61.05273438 C-12.22759766 60.54033203 -11.22277344 60.02792969 -10.1875 59.5 C-9.20974609 58.98373047 -8.23199219 58.46746094 -7.22460938 57.93554688 C-1.77141713 55.06832925 3.73041217 52.29932298 9.25 49.5625 C7.67532959 49.57821045 7.67532959 49.57821045 6.06884766 49.59423828 C2.18134967 49.63038453 -1.70613341 49.65338078 -5.59375 49.67236328 C-7.27769466 49.68243317 -8.96162179 49.69608988 -10.64550781 49.71337891 C-13.06319501 49.73758426 -15.48065143 49.74897296 -17.8984375 49.7578125 C-18.6536972 49.76813507 -19.40895691 49.77845764 -20.18710327 49.78909302 C-22.0429398 49.78949318 -23.8981928 49.68472716 -25.75 49.5625 C-26.41 48.9025 -27.07 48.2425 -27.75 47.5625 C-27.42028521 44.26535207 -27.1273161 42.9398161 -24.75 40.5625 C-22.02332599 40.38782707 -19.41149016 40.328713 -16.6875 40.375 C-15.91470703 40.38144531 -15.14191406 40.38789063 -14.34570312 40.39453125 C-9.82383792 40.4554831 -5.39042586 40.68239358 -0.90991211 41.32739258 C1.41162684 41.58009316 3.6654159 41.61091606 6 41.59375 C6.79921875 41.58923828 7.5984375 41.58472656 8.421875 41.58007812 C9.32679688 41.57137695 9.32679688 41.57137695 10.25 41.5625 C9.32102905 41.10979736 9.32102905 41.10979736 8.37329102 40.64794922 C5.51641418 39.25106452 2.66447938 37.844355 -0.1875 36.4375 C-1.16138672 35.963125 -2.13527344 35.48875 -3.13867188 35 C-19.79894476 26.75344352 -19.79894476 26.75344352 -21.61499023 22.56982422 C-21.75 20.5625 -21.75 20.5625 -19.75 17.5625 C-14.70225052 16.58916714 -11.78469214 18.42217001 -7.73413086 21.11987305 C-7.01749268 21.61656494 -6.30085449 22.11325684 -5.5625 22.625 C-4.06012468 23.63315362 -2.55752006 24.64096561 -1.0546875 25.6484375 C-0.32475586 26.1444043 0.40517578 26.64037109 1.15722656 27.15136719 C4.00846131 29.07392165 6.90445603 30.91453329 9.8125 32.75 C10.68003906 33.30042969 11.54757813 33.85085937 12.44140625 34.41796875 C13.33666016 34.98451172 13.33666016 34.98451172 14.25 35.5625 C13.06423505 33.73346292 11.87845826 31.90443351 10.69262695 30.07543945 C9.68536489 28.51920731 8.68000671 26.96174132 7.67651367 25.40307617 C5.47026673 21.97742818 3.2628095 18.55766753 0.9609375 15.1953125 C0.33445313 14.26460937 -0.29203125 13.33390625 -0.9375 12.375 C-1.76314453 11.17810547 -1.76314453 11.17810547 -2.60546875 9.95703125 C-4.02379536 6.98967899 -4.03043045 4.81273492 -3.75 1.5625 C-2.75 0.5625 -2.75 0.5625 0 0 Z " fill="#3278CC" transform="translate(145.75,193.4375)"/>
<path d="M0 0 C1.9375 1.0625 1.9375 1.0625 3 3 C3.1875 6.4375 3.1875 6.4375 2 10 C-0.46820584 11.86690279 -3.12155156 12.90684878 -6 14 C-7.2375 14.61875 -7.2375 14.61875 -8.5 15.25 C-12.07418523 16.32225557 -15.27556401 16.12625207 -19 16 C-18.95875 16.9075 -18.9175 17.815 -18.875 18.75 C-19.00077656 22.02019047 -19.26706059 23.31151456 -21 26 C-26.32734996 29.65624439 -32.83869063 31.8218364 -38.8125 34.25 C-39.44631592 34.5082959 -40.08013184 34.7665918 -40.7331543 35.03271484 C-43.45446569 36.11146525 -45.95439132 36.99301208 -48.85546875 37.4375 C-49.56316406 37.623125 -50.27085938 37.80875 -51 38 C-51.99083632 39.68380173 -51.99083632 39.68380173 -52.5 41.75 C-53.90204708 45.0039176 -54.81058934 45.8986357 -58 47.60546875 C-64.164285 49.95147454 -70.05270235 52.14693322 -76.6875 52.125 C-77.47511719 52.12757813 -78.26273438 52.13015625 -79.07421875 52.1328125 C-81 52 -81 52 -82 51 C-82.23312387 45.52158898 -80.47427261 42.97009077 -76.875 38.875 C-73.12041059 34.99012516 -69.77275279 31.55683185 -65 29 C-62.91796875 29.0234375 -62.91796875 29.0234375 -60.6875 29.25 C-57.52038373 29.43128275 -56.32279849 29.22869452 -53.6953125 27.3671875 C-52.05020794 25.81917108 -50.42358357 24.25136182 -48.8125 22.66796875 C-45.63932708 19.65786166 -42.33091043 17.02666885 -38.8125 14.4375 C-38.24249268 13.99615723 -37.67248535 13.55481445 -37.08520508 13.10009766 C-32.9458736 10.0910876 -30.05583697 9.47909559 -25 10 C-22.23857335 11.01736771 -21.31914629 11.36170741 -20 14 C-19.57589844 13.49210937 -19.15179688 12.98421875 -18.71484375 12.4609375 C-6.89558189 -1.41045993 -6.89558189 -1.41045993 0 0 Z " fill="#F9F9FC" transform="translate(123,92)"/>
<path d="M0 0 C3.5 0.5 3.5 0.5 5.5 2.1875 C6.78491376 5.15886307 6.39771499 6.41495915 5.5 9.5 C4.01171875 11.8515625 4.01171875 11.8515625 2.1875 14.125 C1.59324219 14.88039063 0.99898437 15.63578125 0.38671875 16.4140625 C-1.46265381 18.45871043 -3.1650945 20.03660614 -5.5 21.5 C-6.49 21.5 -7.48 21.5 -8.5 21.5 C-8.005 21.995 -7.51 22.49 -7 23 C-4.85696712 26.57172146 -4.56928641 29.52206118 -5.5 33.5 C-9.08138048 40.41454647 -14.73681085 46.29629113 -19.85473633 52.12182617 C-21.99756062 54.58213385 -23.45646987 56.36940962 -24.5 59.5 C-24.396875 60.551875 -24.29375 61.60375 -24.1875 62.6875 C-24.83334272 70.56678122 -31.52054856 75.97807257 -37.2421875 80.93359375 C-40.43557152 83.14907298 -42.65613921 83.5 -46.5 83.5 C-49.34885925 77.80228149 -47.16225039 71.53378752 -45.375 65.8125 C-45.18728027 65.17094971 -44.99956055 64.52939941 -44.80615234 63.8684082 C-43.09342639 58.72822792 -40.85762875 56.459792 -36.5 53.5 C-35.51 53.5 -34.52 53.5 -33.5 53.5 C-33.36464844 52.90316406 -33.22929688 52.30632812 -33.08984375 51.69140625 C-31.55262283 45.49649799 -29.5205061 39.55757429 -27.1875 33.625 C-26.78035767 32.53747437 -26.78035767 32.53747437 -26.36499023 31.42797852 C-24.30180088 26.33169419 -22.07230786 23.60027708 -17.5 20.5 C-14.27261779 20.12760975 -12.40295805 20.04852097 -9.5 21.5 C-9.561875 20.365625 -9.62375 19.23125 -9.6875 18.0625 C-9.6875 12.17795897 -7.80397003 7.17313856 -5.25 1.9375 C-3.5 0.5 -3.5 0.5 0 0 Z " fill="#F9F9FC" transform="translate(69.5,41.5)"/>
<path d="M0 0 C55.11 0 110.22 0 167 0 C167 3.96 167 7.92 167 12 C163.00948637 11.3889526 159.10641205 10.57595072 155.18037415 9.63877869 C135.59171023 5.02294794 116.28144775 3.4431757 96.1875 3.5625 C95.07815094 3.56587372 93.96880188 3.56924744 92.82583618 3.57272339 C64.36591635 3.69746592 37.57340488 7.14669592 10.02490234 14.30737305 C6.72146438 15.06377769 3.35487009 15.52073284 0 16 C0 10.72 0 5.44 0 0 Z " fill="#3278CC" transform="translate(166,0)"/>
<path d="M0 0 C3.0625 0.3125 3.0625 0.3125 4.9375 1.375 C6.7177727 4.44102521 6.8320858 6.94328974 6.0625 10.3125 C3.81227426 15.23959979 1.06383258 19.81050113 -1.9375 24.3125 C-1.256875 24.93125 -0.57625 25.55 0.125 26.1875 C2.92887065 30.70987202 2.08288305 34.21828405 1.0625 39.3125 C-0.08416501 42.79563292 -1.55355038 46.06492527 -3.125 49.375 C-3.68670898 50.62506836 -3.68670898 50.62506836 -4.25976562 51.90039062 C-6.91440868 57.65286335 -9.85382092 63.43054946 -13.9375 68.3125 C-15.4225 68.8075 -15.4225 68.8075 -16.9375 69.3125 C-19.54832704 66.70167296 -19.19604998 64.85136809 -19.21606445 61.29370117 C-19.20663818 60.47490479 -19.19721191 59.6561084 -19.1875 58.8125 C-19.18000732 57.97114502 -19.17251465 57.12979004 -19.16479492 56.26293945 C-19.06569858 50.32546294 -18.78652647 44.41415358 -18.25 38.5 C-18.19682617 37.76652344 -18.14365234 37.03304687 -18.08886719 36.27734375 C-17.49328082 30.70822449 -15.84439217 28.09730179 -11.9375 24.3125 C-8.625 23.4375 -8.625 23.4375 -5.9375 23.3125 C-6.2675 22.6525 -6.5975 21.9925 -6.9375 21.3125 C-7.0610718 19.23189575 -7.11310367 17.14673667 -7.125 15.0625 C-7.13917969 13.94359375 -7.15335938 12.8246875 -7.16796875 11.671875 C-6.79793331 6.27813802 -6.15288364 0.65456209 0 0 Z " fill="#F8F8FB" transform="translate(35.9375,27.6875)"/>
<path d="M0 0 C1.875 1.125 1.875 1.125 3 3 C3.3125 6.25 3.3125 6.25 2 10 C-2.93262678 14.65183209 -8.36266847 17.70139166 -15 19 C-14.505 19.99 -14.505 19.99 -14 21 C-13.66702616 24.98756481 -13.92038947 28.58168813 -16.39453125 31.83203125 C-18.50233467 33.72683559 -20.68504192 35.36301902 -23 37 C-24.02480469 37.74507812 -25.04960938 38.49015625 -26.10546875 39.2578125 C-43.0171045 51.37581556 -43.0171045 51.37581556 -50 51 C-49.55610312 45.08392604 -47.8307477 41.25790416 -44.625 36.3125 C-44.18309326 35.622771 -43.74118652 34.93304199 -43.28588867 34.22241211 C-31.92051274 16.96195787 -31.92051274 16.96195787 -24.41796875 15.12109375 C-21.59145104 15.02095427 -19.62872257 15.05365988 -17 16 C-16.69707031 15.34773438 -16.39414063 14.69546875 -16.08203125 14.0234375 C-8.20827812 -2.40242287 -8.20827812 -2.40242287 0 0 Z " fill="#F8F8FB" transform="translate(101,64)"/>
<path d="M0 0 C2.475 0.495 2.475 0.495 5 1 C7.50184885 4.75277327 7.29515907 6.54033094 7 11 C6.41607062 13.49994766 5.74841182 15.98177372 5 18.4375 C4.62875 19.67371094 4.2575 20.90992188 3.875 22.18359375 C3.58625 23.11300781 3.2975 24.04242188 3 25 C3.78375 25.268125 4.5675 25.53625 5.375 25.8125 C8 27 8 27 10 30 C11.46800265 40.2569536 8.4159797 51.37413845 6.28125 61.36328125 C6.1884375 62.23339844 6.095625 63.10351562 6 64 C6.639375 64.78375 7.27875 65.5675 7.9375 66.375 C10.18712265 69.2381561 10.58351663 70.87454588 10.390625 74.484375 C9.18024868 82.27919853 7.57691857 90.17058315 2 96 C1.34 96 0.68 96 0 96 C0 64.32 0 32.64 0 0 Z " fill="#F9F9FC" transform="translate(0,23)"/>
<path d="M0 0 C4.75 0.75 4.75 0.75 7 3 C8.56235145 12.8464475 6.5130325 27.973935 2 37 C1.7724985 38.87056791 1.59037189 40.74685958 1.4375 42.625 C1.35371094 43.62789062 1.26992188 44.63078125 1.18359375 45.6640625 C1.12300781 46.43492187 1.06242187 47.20578125 1 48 C1.928125 48.2475 2.85625 48.495 3.8125 48.75 C7.30076171 50.11794577 8.41170091 50.64692414 10 54 C10.61910022 58.87541421 10.7360976 60.86023598 8.0625 65 C4.5038223 67.32403441 2.34700361 67.78617131 -1.83984375 67.5625 C-5.73480365 66.5482609 -6.9488932 64.37440151 -9 61 C-9 60.01 -9 59.02 -9 58 C-8.01 58 -7.02 58 -6 58 C-6.01047363 57.4423999 -6.02094727 56.8847998 -6.03173828 56.31030273 C-6.27551395 41.29032728 -5.58515263 27.40376258 -1.6640625 12.80859375 C-0.6633941 8.57635504 -0.27799174 4.33283673 0 0 Z " fill="#387BCD" transform="translate(332,108)"/>
<path d="M0 0 C1.625 2.3125 1.625 2.3125 2.125 4.8125 C1.45580878 8.1584561 0.27187033 9.18940944 -2.375 11.3125 C-5.17675781 11.91748047 -5.17675781 11.91748047 -8.578125 12.0546875 C-9.53745941 12.09745316 -9.53745941 12.09745316 -10.51617432 12.14108276 C-19.95215787 12.50204966 -29.4083935 12.46136654 -38.84960938 12.44287109 C-42.16020137 12.43744228 -45.47066176 12.44288223 -48.78125 12.44921875 C-50.8906253 12.44855908 -53.00000052 12.44728024 -55.109375 12.4453125 C-56.5904776 12.44834885 -56.5904776 12.44834885 -58.10150146 12.45144653 C-59.01385559 12.44829437 -59.92620972 12.44514221 -60.86621094 12.44189453 C-62.06742584 12.44070114 -62.06742584 12.44070114 -63.29290771 12.43948364 C-65.375 12.3125 -65.375 12.3125 -68.375 11.3125 C-68.375 10.6525 -68.375 9.9925 -68.375 9.3125 C-62.37351524 7.16777714 -56.45200693 5.53544048 -50.1875 4.375 C-49.31472412 4.2109668 -48.44194824 4.04693359 -47.54272461 3.87792969 C-39.20871143 2.36747489 -30.83010866 1.18988433 -22.4375 0.0625 C-21.13981689 -0.11273193 -19.84213379 -0.28796387 -18.50512695 -0.46850586 C-3.42442506 -2.43314412 -3.42442506 -2.43314412 0 0 Z " fill="#F3F3F8" transform="translate(497.375,146.6875)"/>
<path d="M0 0 C2.75329021 1.79562405 4.52627461 3.05254922 6 6 C6.28904029 9.25170328 6.1405454 11.59710317 5.0625 14.6875 C0.68916078 19.59094095 -6.68066851 20.47490598 -13 21 C-17.31349484 21.11536513 -21.6228772 21.09438749 -25.9375 21.0625 C-27.67870117 21.05573242 -27.67870117 21.05573242 -29.45507812 21.04882812 C-32.30343934 21.03710647 -35.15169222 21.0206976 -38 21 C-38.33 19.68 -38.66 18.36 -39 17 C-34.68295411 13.14549474 -30.4547781 10.43808486 -25.25 7.9375 C-24.54625244 7.59460938 -23.84250488 7.25171875 -23.11743164 6.8984375 C-6.65654213 -1.04416347 -6.65654213 -1.04416347 0 0 Z " fill="#F8F8FB" transform="translate(109,128)"/>
<path d="M0 0 C12.88153662 1.61912105 26.78577545 15.47221707 37 23 C37.6177832 23.45503906 38.23556641 23.91007812 38.87207031 24.37890625 C41.45045993 26.28321659 44.01525046 28.20262188 46.5625 30.1484375 C48.03834421 31.26951147 49.5339079 32.36605049 51.0625 33.4140625 C52.75 34.625 52.75 34.625 55 37 C55.55685636 40.58862985 55.71902527 42.7616787 53.875 45.9375 C50.97098171 47.58311036 49.32053933 47.47657682 46 47 C43.21206373 45.10824179 40.92737607 42.76346078 38.5625 40.375 C37.14503967 38.99296794 35.72705841 37.61146999 34.30859375 36.23046875 C33.59300293 35.5245459 32.87741211 34.81862305 32.14013672 34.09130859 C28.86357631 30.8895043 25.49148435 27.79406084 22.125 24.6875 C4.82847614 8.56461263 4.82847614 8.56461263 0 1 C0 0.67 0 0.34 0 0 Z " fill="#3278CC" transform="translate(407,228)"/>
<path d="M0 0 C-3.38447849 4.93269738 -7.53164849 7.61708102 -12.5 10.75 C-13.35424561 11.29495117 -14.20849121 11.83990234 -15.08862305 12.40136719 C-18.05119242 14.28038851 -21.02502 16.14069435 -24 18 C-25.18850689 18.74839137 -26.3768135 19.49710086 -27.56494141 20.24609375 C-30.6847613 22.21019099 -33.81413136 24.15826668 -36.95019531 26.09631348 C-38.18412538 26.86072571 -39.41577375 27.62883438 -40.64501953 28.40075684 C-42.3877461 29.4927439 -44.13959425 30.56840193 -45.89453125 31.640625 C-47.40817261 32.57696777 -47.40817261 32.57696777 -48.95239258 33.53222656 C-52.38885419 35.18727801 -55.20022093 35.78103833 -59 36 C-61.85115975 34.09922683 -62.77636266 32.87218562 -63.625 29.5625 C-62.70782764 25.8020933 -60.03068807 24.15430901 -57 22 C-53.79052734 20.27416992 -53.79052734 20.27416992 -50.3359375 18.73046875 C-49.70990128 18.44803818 -49.08386505 18.1656076 -48.43885803 17.87461853 C-46.42201008 16.96856072 -44.3990917 16.07724419 -42.375 15.1875 C-40.9791322 14.56715513 -39.58338094 13.94654799 -38.18774414 13.32568359 C-30.31053019 9.8349286 -22.40895309 6.39539877 -14.4375 3.125 C-13.65487793 2.79781982 -12.87225586 2.47063965 -12.06591797 2.13354492 C-7.87888121 0.46292191 -4.5912714 -0.36265967 0 0 Z " fill="#3278CC" transform="translate(247,211)"/>
<path d="M0 0 C1.84536598 0.00212242 1.84536598 0.00212242 3.72801208 0.00428772 C7.62989812 0.0098534 11.53172527 0.02239954 15.43359375 0.03515625 C18.09049395 0.04074359 20.7473936 0.04473781 23.40429688 0.04882812 C29.89324902 0.05981159 36.38216717 0.07651531 42.87109375 0.09765625 C43.36609375 1.58265625 43.36609375 1.58265625 43.87109375 3.09765625 C34.00419684 6.19620809 24.00326266 8.04835161 13.80859375 9.72265625 C12.55546387 9.92850342 11.30233398 10.13435059 10.01123047 10.34643555 C6.29997821 10.94493861 2.58662407 11.52633773 -1.12890625 12.09765625 C-2.39589355 12.29327148 -3.66288086 12.48888672 -4.96826172 12.69042969 C-6.19561035 12.87379883 -7.42295898 13.05716797 -8.6875 13.24609375 C-9.78247803 13.41028809 -10.87745605 13.57448242 -12.00561523 13.74365234 C-20.33631847 14.68788119 -20.33631847 14.68788119 -24.06640625 11.91015625 C-26.12890625 9.09765625 -26.12890625 9.09765625 -26.12890625 6.47265625 C-25.06864656 3.95453949 -24.2123416 2.8274375 -22.12890625 1.09765625 C-14.79854681 -0.19403093 -7.42466917 -0.03251717 0 0 Z " fill="#3278CC" transform="translate(192.12890625,172.90234375)"/>
<path d="M0 0 C2 2 2 2 2.3125 4.9375 C2 8 2 8 0.9140625 9.546875 C-1.79197822 11.60125693 -4.71291097 12.40780338 -7.9375 13.3125 C-9.01753296 13.62344604 -9.01753296 13.62344604 -10.11938477 13.94067383 C-20.89674187 16.93260344 -31.89128959 19.11062554 -42.84375 21.35351562 C-44.86090601 21.7666831 -46.87669999 22.18659493 -48.890625 22.61523438 C-54.42257833 23.7748957 -59.34277792 24.18249103 -65 24 C-64 21 -64 21 -62.12426758 19.8684082 C-60.8967981 19.33993286 -60.8967981 19.33993286 -59.64453125 18.80078125 C-58.26164917 18.19967529 -58.26164917 18.19967529 -56.85083008 17.58642578 C-55.84818115 17.16603027 -54.84553223 16.74563477 -53.8125 16.3125 C-52.78471436 15.87405762 -51.75692871 15.43561523 -50.69799805 14.98388672 C-41.03193846 10.91202499 -31.23056132 7.26378916 -21.32617188 3.81787109 C-19.27500787 3.09669147 -17.23783065 2.34809682 -15.203125 1.58203125 C-9.68233133 -0.42989978 -5.72617394 -1.74274859 0 0 Z " fill="#F6F6FA" transform="translate(491,115)"/>
<path d="M0 0 C0.66 0.33 1.32 0.66 2 1 C2.37890187 41.38510971 2.37890187 41.38510971 1.25 56.3125 C1.18828613 57.26318359 1.12657227 58.21386719 1.06298828 59.19335938 C0.70919258 63.12115364 0.47160821 65.36606636 -1.91796875 68.578125 C-4.53988462 70.36870169 -5.88679451 70.55878047 -9 70 C-11.16107075 68.37459032 -11.91658668 67.49574494 -12.36987305 64.80175781 C-12.2323991 56.97677023 -11.16381295 49.45153883 -9.8125 41.75 C-9.58674697 40.43450364 -9.3610808 39.11899237 -9.13549805 37.8034668 C-7.68456082 29.44164291 -6.08446557 21.11251275 -4.3125 12.8125 C-4.11052002 11.85762695 -3.90854004 10.90275391 -3.70043945 9.91894531 C-3.50667725 9.04463867 -3.31291504 8.17033203 -3.11328125 7.26953125 C-2.86251831 6.13414917 -2.86251831 6.13414917 -2.60668945 4.97583008 C-2 3 -2 3 0 0 Z " fill="#3278CC" transform="translate(322,262)"/>
<path d="M0 0 C-3.54932426 11.67896698 -12.11542702 21.70626065 -19.21240234 31.51416016 C-20.4783643 33.27461149 -21.73277955 35.04339274 -22.97900391 36.81787109 C-25.04387184 39.75190098 -27.14322811 42.65845809 -29.25 45.5625 C-29.8989624 46.49755371 -30.5479248 47.43260742 -31.21655273 48.39599609 C-35.81504279 54.62884354 -35.81504279 54.62884354 -39.19335938 55.68701172 C-41.359375 55.77734375 -41.359375 55.77734375 -45 55 C-47.33477034 51.49784449 -47.47816823 50.12160221 -47 46 C-45.453125 43.68359375 -45.453125 43.68359375 -43.25 41.4375 C-42.41726562 40.56867188 -41.58453125 39.69984375 -40.7265625 38.8046875 C-39.82679688 37.87914062 -38.92703125 36.95359375 -38 36 C-36.67765276 34.54263833 -35.35546971 33.08511679 -34.03833008 31.62304688 C-28.23252813 25.21249478 -22.16770855 19.06190732 -16.0625 12.9375 C-15.24539551 12.11580322 -14.42829102 11.29410645 -13.58642578 10.44750977 C-3.11186955 0 -3.11186955 0 0 0 Z " fill="#3278CC" transform="translate(271,240)"/>
<path d="M0 0 C4.49150344 1.41039513 7.27345733 3.86205359 10.4921875 7.1640625 C11.00121613 7.67496429 11.51024475 8.18586609 12.03469849 8.71224976 C13.10885778 9.7931124 14.17942276 10.87755755 15.24658203 11.96533203 C16.85603581 13.60567188 18.47565434 15.23535782 20.09765625 16.86328125 C25.07014407 21.87355771 29.93994406 26.93734791 34.52880859 32.30566406 C35.91773495 33.90525731 37.35274006 35.42943425 38.8359375 36.94140625 C40.09277344 38.23884766 40.09277344 38.23884766 41.375 39.5625 C42.22835937 40.43003906 43.08171875 41.29757812 43.9609375 42.19140625 C46.40493222 45.55775146 46.85418535 47.87344549 47 52 C45.5 54.5 45.5 54.5 43 56 C39.5409447 56.08657945 37.05835493 55.98552475 34.43896484 53.54638672 C32.82422526 51.48878381 31.37245836 49.37437471 29.9375 47.1875 C29.38803711 46.38723389 28.83857422 45.58696777 28.27246094 44.76245117 C27.10257784 43.05766529 25.94083323 41.34727049 24.78662109 39.63183594 C23.01461777 37.02153315 21.19892329 34.44867914 19.36328125 31.8828125 C13.87298832 24.19551652 8.50371906 16.4681558 3.625 8.375 C3.24956055 7.75343018 2.87412109 7.13186035 2.48730469 6.49145508 C0 2.26363791 0 2.26363791 0 0 Z " fill="#3278CC" transform="translate(393,241)"/>
<path d="M0 0 C-1.35066245 4.03075886 -3.05592057 6.42239493 -6.0703125 9.3984375 C-6.885 10.20796875 -7.6996875 11.0175 -8.5390625 11.8515625 C-9.39242187 12.68429688 -10.24578125 13.51703125 -11.125 14.375 C-12.37023437 15.6125 -12.37023437 15.6125 -13.640625 16.875 C-18.01889787 21.19837289 -22.47963921 25.37261134 -27.14208984 29.38720703 C-30.65299484 32.43491247 -34.02539841 35.63444816 -37.41796875 38.8125 C-45.01275647 45.87911304 -45.01275647 45.87911304 -49.0625 46.375 C-52 46 -52 46 -53.875 44.9375 C-55.66473593 41.855177 -55.38000149 39.49452346 -55 36 C-52.859375 33.62109375 -52.859375 33.62109375 -49.75 31.4375 C-49.17862305 31.02749756 -48.60724609 30.61749512 -48.01855469 30.19506836 C-46.73601061 29.28057475 -45.445427 28.37728663 -44.1484375 27.48339844 C-41.84156546 25.89060815 -39.56096492 24.26421043 -37.28125 22.6328125 C-5.48931861 0 -5.48931861 0 0 0 Z " fill="#3278CC" transform="translate(257,227)"/>
<path d="M0 0 C3.33959141 0.77067494 4.53369782 1.70679673 6.4375 4.5625 C6.7479085 7.72866667 6.74590792 8.78144885 5.4375 11.5625 C3.4465869 13.9127074 1.33008793 15.98396394 -0.9453125 18.05859375 C-2.96707767 19.99284968 -4.73607155 21.88834976 -6.54296875 24.0078125 C-11.42897174 29.66171028 -16.70664707 34.92927432 -21.97924805 40.21948242 C-23.76358411 42.01365903 -25.53697993 43.81823195 -27.31054688 45.62304688 C-28.44986358 46.76888305 -29.58981475 47.91408881 -30.73046875 49.05859375 C-31.25658249 49.59705429 -31.78269623 50.13551483 -32.32475281 50.69029236 C-36.87239626 55.2105107 -36.87239626 55.2105107 -40.5625 55.5625 C-40.00016464 51.30261707 -38.55164966 48.64535091 -36.125 45.125 C-35.39667969 44.06539062 -34.66835938 43.00578125 -33.91796875 41.9140625 C-33.13403362 40.7960178 -32.34887314 39.67883128 -31.5625 38.5625 C-30.44294922 36.96535156 -30.44294922 36.96535156 -29.30078125 35.3359375 C-26.75046084 31.72360683 -24.15930914 28.14149553 -21.5625 24.5625 C-20.99096191 23.77230469 -20.41942383 22.98210938 -19.83056641 22.16796875 C-17.97590088 19.60791095 -16.11398727 17.05327677 -14.25 14.5 C-13.66331543 13.69038818 -13.07663086 12.88077637 -12.47216797 12.04663086 C-4.33327814 0.9512074 -4.33327814 0.9512074 0 0 Z " fill="#F7F7FB" transform="translate(435.5625,35.4375)"/>
<path d="M0 0 C4.6128 1.3454 4.6128 1.3454 6 3.875 C5.59350835 9.92895492 4.10185767 15.00088406 1.90234375 20.625 C1.58979141 21.44137939 1.27723907 22.25775879 0.95521545 23.09887695 C0.29299568 24.82168909 -0.37371729 26.54278016 -1.04467773 28.26220703 C-2.04709753 30.8354612 -3.03140821 33.41508915 -4.01367188 35.99609375 C-8.09751528 46.61615128 -12.70401493 56.80515686 -18 66.875 C-18.66 66.875 -19.32 66.875 -20 66.875 C-20.17036201 61.64829348 -19.58150898 56.92082961 -18.4375 51.8125 C-18.26549072 51.02319092 -18.09348145 50.23388184 -17.91625977 49.4206543 C-17.28853716 46.56953555 -16.64512445 43.72223194 -16 40.875 C-15.72671875 39.6590918 -15.4534375 38.44318359 -15.171875 37.19042969 C-14.42132809 33.85641117 -13.66217008 30.52443874 -12.89749146 27.19363403 C-12.59361626 25.86836077 -12.29123976 24.54274286 -11.990448 23.21676636 C-6.64600306 -0.27691679 -6.64600306 -0.27691679 0 0 Z " fill="#F7F7FA" transform="translate(381,6.125)"/>
<path d="M0 0 C8.20681823 1.16089718 15.1913345 3.98703917 22.6875 7.4375 C23.85273193 7.96593506 25.01796387 8.49437012 26.21850586 9.03881836 C29.81874739 10.67897448 33.41017316 12.33718828 37 14 C38.14178711 14.5249707 39.28357422 15.04994141 40.45996094 15.59082031 C43.66667269 17.06918465 46.86612234 18.56194069 50.0625 20.0625 C51.03727295 20.51488037 52.0120459 20.96726074 53.01635742 21.43334961 C53.90943604 21.8588208 54.80251465 22.28429199 55.72265625 22.72265625 C56.50390869 23.09140869 57.28516113 23.46016113 58.09008789 23.84008789 C60 25 60 25 62 28 C61.8125 31.5625 61.8125 31.5625 61 35 C57.70585273 37.19609818 56.8166193 37.44758695 53 37 C50.39477539 35.76928711 50.39477539 35.76928711 47.59765625 34.02734375 C46.55246826 33.3818457 45.50728027 32.73634766 44.43041992 32.07128906 C43.31900635 31.36713867 42.20759277 30.66298828 41.0625 29.9375 C39.9056083 29.21411269 38.74846003 28.49113555 37.59106445 27.76855469 C8.03487188 9.22310132 8.03487188 9.22310132 0 2 C0 1.34 0 0.68 0 0 Z " fill="#3278CC" transform="translate(418,212)"/>
<path d="M0 0 C7.29845897 5.99000563 7.29344292 23.11848929 8.73486328 32.12963867 C9.1251561 34.56347344 9.52503352 36.99560176 9.92578125 39.42773438 C14.03840166 64.66800338 14.03840166 64.66800338 11 69 C7.625 70 7.625 70 4 70 C0.90895641 67.80442447 0.0935692 66.50269843 -0.60498047 62.74975586 C-0.65025879 61.43885986 -0.69553711 60.12796387 -0.7421875 58.77734375 C-0.77069794 58.04353989 -0.79920837 57.30973602 -0.82858276 56.55369568 C-0.91405175 54.03566163 -0.96199759 51.51919025 -1 49 C-1.01454224 48.06859192 -1.02908447 47.13718384 -1.04406738 46.17755127 C-1.12547628 40.03373166 -1.14275397 33.89111625 -1.13037109 27.74682617 C-1.12492058 24.51541644 -1.13039744 21.28414039 -1.13671875 18.05273438 C-1.13605941 15.99479136 -1.13478126 13.93684843 -1.1328125 11.87890625 C-1.13483673 10.91449112 -1.13686096 9.95007599 -1.13894653 8.95643616 C-1.13579437 8.07048264 -1.13264221 7.18452911 -1.12939453 6.27172852 C-1.12859894 5.49249527 -1.12780334 4.71326202 -1.12698364 3.91041565 C-1 2 -1 2 0 0 Z " fill="#3278CC" transform="translate(341,262)"/>
<path d="M0 0 C4.6865168 3.57423206 7.72599895 7.07154917 10.8125 12.0625 C11.25972412 12.76914795 11.70694824 13.4757959 12.16772461 14.20385742 C13.79509681 16.79260116 15.39948938 19.39455846 17 22 C17.5115564 22.83204956 17.5115564 22.83204956 18.03344727 23.6809082 C22.2033837 30.46691155 26.35117488 37.26648492 30.47265625 44.08203125 C31.10437744 45.12593018 31.73609863 46.1698291 32.38696289 47.24536133 C35.26068565 52.15291603 36.49377963 54.27384474 35 60 C33 62 33 62 29.5625 62.3125 C26 62 26 62 24.39892578 60.72607422 C22.91609612 58.89647462 22.00521563 57.22272728 21.0546875 55.0703125 C20.70438477 54.28543457 20.35408203 53.50055664 19.99316406 52.69189453 C19.62416992 51.84481934 19.25517578 50.99774414 18.875 50.125 C18.48538086 49.24312012 18.09576172 48.36124023 17.69433594 47.45263672 C16.45497776 44.63848862 15.22702416 41.81954489 14 39 C13.5987793 38.08605469 13.19755859 37.17210937 12.78417969 36.23046875 C0 7.09879279 0 7.09879279 0 0 Z " fill="#3278CC" transform="translate(378,252)"/>
<path d="M0 0 C8.63978954 0.49775358 16.87105715 1.81076513 25.3125 3.6875 C26.51712891 3.95151611 27.72175781 4.21553223 28.96289062 4.48754883 C37.00333151 6.27401975 45.01666731 8.16091712 53 10.1875 C53.95430908 10.4249292 54.90861816 10.6623584 55.8918457 10.90698242 C56.77316162 11.13748291 57.65447754 11.3679834 58.5625 11.60546875 C59.32691406 11.80293701 60.09132813 12.00040527 60.87890625 12.20385742 C63.36384647 13.13656806 65.05760701 14.18903287 67 16 C67.7495318 21.99625438 67.7495318 21.99625438 65.71582031 24.71972656 C64 26 64 26 60.109375 25.984375 C53.83534411 25.04605995 48.1029285 22.61027187 42.25 20.25 C41.15945313 19.81945312 40.06890625 19.38890625 38.9453125 18.9453125 C36.73856335 18.07409002 34.53372511 17.19801201 32.33081055 16.31713867 C28.97404624 14.98973682 25.60051672 13.71402064 22.22265625 12.44140625 C17.05019961 10.45872224 12.10116965 8.23873537 7.1875 5.6875 C6.48302734 5.32849609 5.77855469 4.96949219 5.05273438 4.59960938 C3.36555381 3.73880296 1.6823008 2.87030452 0 2 C0 1.34 0 0.68 0 0 Z " fill="#3279CC" transform="translate(425,194)"/>
<path d="M0 0 C2 1.0625 2 1.0625 3 3 C2.62775667 8.03809489 1.52484709 11.43866466 -1.140625 15.703125 C-1.79305176 16.75717529 -2.44547852 17.81122559 -3.11767578 18.8972168 C-3.82134277 20.00363525 -4.52500977 21.11005371 -5.25 22.25 C-5.97562387 23.40697808 -6.70071639 24.56428957 -7.42529297 25.72192383 C-11.86995889 32.79039549 -16.43115371 39.78183535 -21.125 46.6875 C-21.63192383 47.43354492 -22.13884766 48.17958984 -22.66113281 48.94824219 C-25.82378581 53.5169851 -29.12035712 58.00624998 -33 62 C-33.33 62 -33.66 62 -34 62 C-33.48207467 56.51360497 -32.50224087 52.07359227 -30.375 46.9375 C-30.10848633 46.29248535 -29.84197266 45.6474707 -29.56738281 44.98291016 C-26.91450499 38.64034453 -24.01818371 32.41231982 -21.05078125 26.21191406 C-19.83156503 23.64544125 -18.6345684 21.06906262 -17.4375 18.4921875 C-16.54193848 16.57799781 -15.64610648 14.66393464 -14.75 12.75 C-14.32557617 11.83202637 -13.90115234 10.91405273 -13.46386719 9.96826172 C-13.05813477 9.1073291 -12.65240234 8.24639648 -12.234375 7.359375 C-11.69635254 6.20646973 -11.69635254 6.20646973 -11.14746094 5.03027344 C-8.26140046 -0.07621145 -5.85614195 -0.62744378 0 0 Z " fill="#F7F7FB" transform="translate(413,19)"/>
<path d="M0 0 C3.93421256 3.33759571 5.6727934 7.19342041 7.5625 11.875 C8.05762085 13.07491577 8.05762085 13.07491577 8.56274414 14.29907227 C11.87007448 22.4417603 14.90854216 30.68818625 17.9375 38.9375 C18.18251251 39.60465027 18.42752502 40.27180054 18.67996216 40.95916748 C19.38222326 42.87660252 20.08071243 44.79535693 20.77734375 46.71484375 C21.38437134 48.38728149 21.38437134 48.38728149 22.00366211 50.09350586 C23.65636343 54.91472842 24.37477433 58.84685299 24 64 C22.875 65.9375 22.875 65.9375 21 67 C15.9045686 67.63692893 15.9045686 67.63692893 13.43139648 65.89550781 C11.39327265 63.19654935 10.88835115 60.57926642 10.09765625 57.296875 C9.93490707 56.63040451 9.7721579 55.96393402 9.60447693 55.27726746 C9.07837277 53.10420939 8.56944651 50.92760087 8.0625 48.75 C7.79928955 47.64085739 7.79928955 47.64085739 7.53076172 46.50930786 C5.28147589 37.03033977 3.19139423 27.53413147 1.5 17.9375 C1.34023682 17.03676758 1.18047363 16.13603516 1.01586914 15.20800781 C0.16717211 10.06968478 -0.14447484 5.20711395 0 0 Z " fill="#3278CC" transform="translate(360,259)"/>
<path d="M0 0 C0.66 0 1.32 0 2 0 C0.61613476 7.77912411 -2.16321787 14.45751969 -5.4375 21.625 C-5.96593506 22.79546875 -6.49437012 23.9659375 -7.03881836 25.171875 C-8.67903342 28.78762062 -10.3357452 32.39526147 -12 36 C-12.5249707 37.13791992 -13.04994141 38.27583984 -13.59082031 39.44824219 C-15.0698757 42.63771881 -16.56208641 45.82052178 -18.0625 49 C-18.51488037 49.96631348 -18.96726074 50.93262695 -19.43334961 51.92822266 C-19.8588208 52.81815918 -20.28429199 53.7080957 -20.72265625 54.625 C-21.09140869 55.40101563 -21.46016113 56.17703125 -21.84008789 56.9765625 C-23.03670481 59.06403061 -24.13065378 60.48774646 -26 62 C-29.14924548 62.39365568 -31.11909116 62.52854531 -33.875 60.875 C-35.56202708 58.0632882 -35.32890454 56.26258182 -35 53 C-33.82783905 50.22902948 -32.28066694 47.73467681 -30.6875 45.1875 C-30.23745605 44.44757813 -29.78741211 43.70765625 -29.32373047 42.9453125 C-27.89942713 40.61919638 -26.45336383 38.30805337 -25 36 C-24.55124512 35.28279785 -24.10249023 34.5655957 -23.64013672 33.82666016 C-6.4290776 6.4290776 -6.4290776 6.4290776 0 0 Z " fill="#3279CD" transform="translate(285,251)"/>
<path d="M0 0 C7.0068279 -0.02559779 14.01364349 -0.04296964 21.02050781 -0.05493164 C23.39844208 -0.05992459 25.77637334 -0.06672128 28.15429688 -0.07543945 C63.11782502 -0.2003092 63.11782502 -0.2003092 67.85400391 2.82006836 C70 5 70 5 70 8.625 C69 12 69 12 66 14 C59.6146954 14.4110407 53.59422006 13.46596651 47.3125 12.375 C46.29244873 12.2011377 45.27239746 12.02727539 44.22143555 11.84814453 C35.55555842 10.33781152 26.92994533 8.63732734 18.3125 6.875 C17.06573486 6.62153809 15.81896973 6.36807617 14.53442383 6.10693359 C13.36419678 5.86281738 12.19396973 5.61870117 10.98828125 5.3671875 C9.95227783 5.15175293 8.91627441 4.93631836 7.84887695 4.71435547 C5.10106539 4.02534213 2.59919415 3.11824754 0 2 C0 1.34 0 0.68 0 0 Z " fill="#3278CC" transform="translate(429,175)"/>
<path d="M0 0 C2 1.0625 2 1.0625 3 3 C2.86868966 7.15329748 2.65167212 9.30738512 -0.23828125 12.37890625 C-1.25277344 13.09949219 -2.26726562 13.82007812 -3.3125 14.5625 C-3.87791504 14.97177734 -4.44333008 15.38105469 -5.02587891 15.80273438 C-7.00268828 17.22348438 -9.00086469 18.6108631 -11 20 C-12.5959264 21.13288391 -14.19093566 22.26706064 -15.78515625 23.40234375 C-20.02388097 26.40778344 -24.28793386 29.37444547 -28.56689453 32.32226562 C-30.13045445 33.40040969 -31.69154661 34.48214624 -33.24951172 35.56835938 C-35.26388306 36.97216062 -37.28647465 38.3630912 -39.3125 39.75 C-39.89177246 40.15605469 -40.47104492 40.56210938 -41.06787109 40.98046875 C-44.9848761 43.62768172 -48.46117683 44.91850601 -53 46 C-49.04755882 37.50132365 -41.38218719 31.42112853 -34.5949707 25.18798828 C-30.82021774 21.721208 -27.15340831 18.17727841 -23.54492188 14.5378418 C-21.12774392 12.1317413 -18.56762809 9.92091352 -15.97265625 7.7109375 C-14.67641618 6.58667384 -13.41133121 5.42525671 -12.18359375 4.2265625 C-8.20910602 0.43879567 -5.73483273 -0.9925672 0 0 Z " fill="#F8F8FB" transform="translate(461,59)"/>
<path d="M0 0 C0.96679688 0.00902344 1.93359375 0.01804688 2.9296875 0.02734375 C3.65414062 0.03894531 4.37859375 0.05054688 5.125 0.0625 C1.64180008 4.21660651 -2.28695865 5.83009994 -7.1875 7.8125 C-8.42209961 8.32248535 -8.42209961 8.32248535 -9.68164062 8.84277344 C-19.03238031 12.63955029 -28.57503186 15.88892858 -38.13500977 19.11279297 C-41.92243972 20.4255527 -45.66721182 21.84783373 -49.40991211 23.28271484 C-53.11371871 24.45434585 -56.01981032 24.48306615 -59.875 24.0625 C-61.875 22.0625 -61.875 22.0625 -62.1875 18.625 C-61.875 15.0625 -61.875 15.0625 -60.66723633 13.42919922 C-58.44069858 11.73131633 -56.61499612 11.25651737 -53.88671875 10.6328125 C-52.37718628 10.27932739 -52.37718628 10.27932739 -50.8371582 9.91870117 C-49.21620239 9.55675659 -49.21620239 9.55675659 -47.5625 9.1875 C-45.89997192 8.80331909 -45.89997192 8.80331909 -44.20385742 8.41137695 C-41.90232903 7.88116221 -39.59965161 7.35591241 -37.29589844 6.83544922 C-34.04109608 6.10002927 -30.78970362 5.35122792 -27.5390625 4.59765625 C-7.22574655 -0.08811886 -7.22574655 -0.08811886 0 0 Z " fill="#3279CC" transform="translate(234.875,192.9375)"/>
<path d="M0 0 C3.375 0.875 3.375 0.875 5.375 2.875 C5.83600949 14.50780625 3.20064086 26.04732064 0.87597656 37.37109375 C0.41389406 39.68060551 -0.01083281 41.99208683 -0.4140625 44.3125 C-1.88494851 52.75739731 -3.88470732 60.75149277 -6.625 68.875 C-7.285 68.875 -7.945 68.875 -8.625 68.875 C-8.65053307 61.54671988 -8.66794317 54.21845141 -8.67993164 46.89013672 C-8.68493404 44.40152559 -8.69173805 41.91291735 -8.70043945 39.42431641 C-8.71268549 35.82974529 -8.71826941 32.23521331 -8.72265625 28.640625 C-8.72781754 27.54325012 -8.73297882 26.44587524 -8.73829651 25.31524658 C-8.73867648 19.98171389 -8.64543273 14.65386054 -8.36889648 9.32714844 C-8.32337143 8.37499451 -8.27784637 7.42284058 -8.23094177 6.4418335 C-7.08663869 1.59444448 -4.90461208 -0.16912455 0 0 Z " fill="#F7F7FA" transform="translate(350.625,0.125)"/>
<path d="M0 0 C0.33 0 0.66 0 1 0 C1.58005333 8.71884612 -0.18739934 16.81244235 -2.125 25.25 C-2.44387095 26.66752001 -2.76255403 28.08508229 -3.08105469 29.50268555 C-5.00045602 37.97309496 -7.02569064 46.41655574 -9.25 54.8125 C-9.48348145 55.71194336 -9.71696289 56.61138672 -9.95751953 57.53808594 C-10.18294434 58.35696289 -10.40836914 59.17583984 -10.640625 60.01953125 C-10.83172852 60.72182861 -11.02283203 61.42412598 -11.21972656 62.14770508 C-12.14673524 64.3483355 -13.13490122 65.51650202 -15 67 C-20.14222131 67.64277766 -20.14222131 67.64277766 -22.69384766 65.73071289 C-24.35286206 63.53244128 -24.26704246 62.6302783 -23.8984375 59.93359375 C-23.11619865 54.73160055 -21.48278485 49.96750513 -19.625 45.0625 C-19.27920898 44.13171631 -18.93341797 43.20093262 -18.57714844 42.24194336 C-15.63795455 34.44587944 -12.47697805 26.74327255 -9.25 19.0625 C-8.79061035 17.96752197 -8.3312207 16.87254395 -7.85791016 15.74438477 C-5.52733784 10.28080772 -3.08987497 5.07519183 0 0 Z " fill="#3279CD" transform="translate(303,258)"/>
<path d="M0 0 C1.875 1.125 1.875 1.125 3 3 C3.375 6 3.375 6 3 9 C1.01655669 11.41224487 -1.07465848 12.71530584 -3.8671875 14.05859375 C-4.65665771 14.43886719 -5.44612793 14.81914063 -6.25952148 15.2109375 C-7.12262939 15.61570312 -7.9857373 16.02046875 -8.875 16.4375 C-9.77742432 16.86417969 -10.67984863 17.29085937 -11.60961914 17.73046875 C-19.79285566 21.54305857 -28.09574246 25.05243301 -36.4375 28.5 C-37.06855652 28.76102509 -37.69961304 29.02205017 -38.34979248 29.29098511 C-55.95756066 36.55478436 -55.95756066 36.55478436 -60 35 C-53.5136593 29.6221614 -46.89374517 24.7760314 -39.75 20.3125 C-38.34621094 19.43053955 -38.34621094 19.43053955 -36.9140625 18.53076172 C-33.94888188 16.67702963 -30.97543071 14.83722723 -28 13 C-26.99001953 12.37174316 -25.98003906 11.74348633 -24.93945312 11.09619141 C-21.96942764 9.25586011 -18.98742336 7.43692409 -16 5.625 C-15.08702148 5.05950439 -14.17404297 4.49400879 -13.23339844 3.91137695 C-5.21605741 -0.88296897 -5.21605741 -0.88296897 0 0 Z " fill="#F9F9FC" transform="translate(478,85)"/>
<path d="M0 0 C0.68449219 0.70382813 1.36898437 1.40765625 2.07421875 2.1328125 C6.12548591 4.71826738 8.54790943 3.83642883 13.12695312 2.9296875 C14.64192383 2.59324219 14.64192383 2.59324219 16.1875 2.25 C34.37809697 -1.58458258 34.37809697 -1.58458258 41 1.3125 C43 3 43 3 45 6 C45 7.32 45 8.64 45 10 C21.57 10 -1.86 10 -26 10 C-25 6 -25 6 -23.1796875 4.8046875 C-7.42929016 -1.54886261 -7.42929016 -1.54886261 0 0 Z " fill="#F4F5F9" transform="translate(74,156)"/>
<path d="M0 0 C2 1.125 2 1.125 3 3 C3.5 5.9375 3.5 5.9375 3 9 C-0.46283282 12.39767304 -3.04754189 13.54732989 -7.83203125 14.046875 C-8.95375732 14.16957764 -10.0754834 14.29228027 -11.23120117 14.41870117 C-13.00394409 14.58269409 -13.00394409 14.58269409 -14.8125 14.75 C-16.01688721 14.87286377 -17.22127441 14.99572754 -18.4621582 15.12231445 C-27.33813214 15.97674677 -36.08923363 16.36843904 -45 16 C-45.33 15.01 -45.66 14.02 -46 13 C-36.18743688 8.40923494 -26.41071687 5.2515217 -15.94067383 2.53588867 C-14.18397121 2.05080096 -12.45438734 1.4700229 -10.73046875 0.87890625 C-6.85676784 -0.36799319 -4.05942231 -0.33273953 0 0 Z " fill="#F4F5F9" transform="translate(432,141)"/>
<path d="M0 0 C3 1 3 1 4.140625 2.9140625 C7.06342026 10.05638612 9.46147648 17.3197714 11.75 24.6875 C12.05583008 25.66090332 12.36166016 26.63430664 12.67675781 27.63720703 C14.43686132 33.45186995 15.68790751 38.9201982 16 45 C14.5 47.625 14.5 47.625 12 49 C8.375 48.9375 8.375 48.9375 5 48 C1.93565074 43.40347611 1.7431387 38.4058408 1 33 C0.88527344 32.18789062 0.77054687 31.37578125 0.65234375 30.5390625 C-0.50900759 20.43039873 -0.08737504 10.15835684 0 0 Z " fill="#3278CC" transform="translate(342,219)"/>
<path d="M0 0 C-3.46735579 10.90290764 -18.05499387 19.26170274 -27 26 C-27.61520508 26.46776855 -28.23041016 26.93553711 -28.86425781 27.41748047 C-31.75751221 29.56342508 -33.63671736 30.94411036 -37.25 31.5 C-40 31 -40 31 -41.875 29.875 C-43.60497222 26.99171297 -43.5939805 25.29989169 -43 22 C-37.86793134 16.89411537 -31.53229737 13.8097501 -25.1875 10.4375 C-23.62418945 9.59155273 -23.62418945 9.59155273 -22.02929688 8.72851562 C-5.76669408 0 -5.76669408 0 0 0 Z " fill="#3278CC" transform="translate(288,195)"/>
<path d="M0 0 C5.45748637 0.49933187 9.64639656 1.99184069 14.5 4.5625 C15.52734253 5.09278809 15.52734253 5.09278809 16.57543945 5.63378906 C18.00420773 6.37411064 19.4303851 7.1194527 20.85400391 7.86962891 C22.96326875 8.98065237 25.08032152 10.07545122 27.19921875 11.16796875 C28.52919297 11.86093008 29.8586412 12.55490208 31.1875 13.25 C31.79851562 13.56654541 32.40953125 13.88309082 33.0390625 14.20922852 C36.68583125 16.14581298 39.96456997 18.18941663 43 21 C43.5625 24 43.5625 24 43 27 C41.14270301 29.61397354 39.98585305 30.78506627 36.83203125 31.47265625 C32.38808368 30.73097672 29.72293239 27.95051441 26.375 25.0625 C24.94671804 23.86185608 23.51833223 22.6613357 22.08984375 21.4609375 C21.39358887 20.86893555 20.69733398 20.27693359 19.97998047 19.66699219 C18.2594597 18.21844523 16.52050857 16.80566003 14.75390625 15.4140625 C9.263839 11.07378742 4.20909329 6.63127839 0 1 C0 0.67 0 0.34 0 0 Z " fill="#3278CC" transform="translate(377,196)"/>
<path d="M0 0 C9.05617384 -0.17736962 17.87745893 0.29648553 26.875 1.3125 C28.04546875 1.43044922 29.2159375 1.54839844 30.421875 1.66992188 C41.75437123 2.92266381 41.75437123 2.92266381 47 6 C48.125 9.5 48.125 9.5 48 13 C46.734375 14.69238281 46.734375 14.69238281 45 16 C37.11779999 16.85814274 30.45277219 14.6601855 23 12.25 C21.8759375 11.90195313 20.751875 11.55390625 19.59375 11.1953125 C12.47005315 8.94835205 5.67998644 6.33999322 -1 3 C-0.67 2.01 -0.34 1.02 0 0 Z " fill="#3178CC" transform="translate(387,175)"/>
<path d="M0 0 C9.10646724 2.48358197 14.80308124 12.37911526 20.265625 19.48828125 C23.24406572 23.35585564 26.41518371 27.0517522 29.63671875 30.71875 C31.40042562 33.67005318 31.3636387 35.61677914 31 39 C29.375 41.4375 29.375 41.4375 27 43 C24.125 43.3125 24.125 43.3125 21 42 C15.9223633 35.87761852 12.42648941 28.41059915 8.8125 21.375 C8.29236328 20.37726563 7.77222656 19.37953125 7.23632812 18.3515625 C0 4.37796336 0 4.37796336 0 0 Z " fill="#3278CC" transform="translate(362,211)"/>
<path d="M0 0 C0.66 0 1.32 0 2 0 C2.33070968 11.07264986 2.03466956 21.92556521 0.75 32.9375 C0.64067139 33.96101563 0.53134277 34.98453125 0.41870117 36.0390625 C-0.25783874 41.36253875 -0.78670359 45.26890074 -5 49 C-8.0625 49.5625 -8.0625 49.5625 -11 49 C-12.90031371 47.0070956 -13.91362172 45.70857182 -14.25 42.94921875 C-13.51051746 36.25921265 -11.56467555 30.15059862 -9.328125 23.82421875 C-8.06531582 20.25198849 -6.99285336 16.63929392 -5.9375 13 C-4.48265835 8.18417722 -2.74142991 4.21005308 0 0 Z " fill="#3278CC" transform="translate(321,219)"/>
<path d="M0 0 C2.65374257 0.95262554 3.85602277 1.54440198 5.4375 3.875 C5.97462182 7.36629182 5.53561017 8.71836424 3.63671875 11.75 C2.81261359 12.80208852 1.97442224 13.84324352 1.125 14.875 C0.67785645 15.43533936 0.23071289 15.99567871 -0.22998047 16.57299805 C-1.65961904 18.35272686 -3.10846905 20.11516288 -4.5625 21.875 C-5.03252441 22.44943848 -5.50254883 23.02387695 -5.98681641 23.61572266 C-17.99513797 38.25646158 -17.99513797 38.25646158 -23.5625 42.875 C-24.2225 42.875 -24.8825 42.875 -25.5625 42.875 C-25.0943996 36.55990008 -22.89298915 31.83283992 -20 26.25 C-19.55253418 25.37351807 -19.10506836 24.49703613 -18.64404297 23.59399414 C-6.2954039 -0.30709287 -6.2954039 -0.30709287 0 0 Z " fill="#F7F7FB" transform="translate(388.5625,78.125)"/>
<path d="M0 0 C-1.97096107 7.79610334 -5.08044729 14.5579952 -8.875 21.625 C-9.39191406 22.60984375 -9.90882813 23.5946875 -10.44140625 24.609375 C-18.79987817 40.39993909 -18.79987817 40.39993909 -22 42 C-27.25465839 42.44720497 -27.25465839 42.44720497 -29.875 40.875 C-31.54674641 38.08875598 -31.33157975 36.21555249 -31 33 C-29.234375 30.0625 -29.234375 30.0625 -26.75 27 C-26.08532715 26.17230103 -26.08532715 26.17230103 -25.40722656 25.32788086 C-23.95640293 23.53599788 -22.48182191 21.76631272 -21 20 C-20.48695313 19.38398926 -19.97390625 18.76797852 -19.4453125 18.13330078 C-4.29418355 0 -4.29418355 0 0 0 Z " fill="#3279CC" transform="translate(303,211)"/>
<path d="M0 0 C0 0.99 0 1.98 0 3 C-9.84904423 6.76581103 -19.72557318 10.35569724 -29.8125 13.4375 C-30.64104492 13.69611816 -31.46958984 13.95473633 -32.32324219 14.22119141 C-36.65297347 15.51514428 -40.42941106 16.40721069 -45 16 C-46.875 14.9375 -46.875 14.9375 -48 13 C-48.65588248 6.87843019 -48.65588248 6.87843019 -46.76098633 4.34057617 C-44.60463391 2.69902188 -43.12713493 2.41533252 -40.44921875 2.05078125 C-39.53277588 1.92485596 -38.61633301 1.79893066 -37.67211914 1.66918945 C-36.68719482 1.55148193 -35.70227051 1.43377441 -34.6875 1.3125 C-33.67743896 1.18512451 -32.66737793 1.05774902 -31.62670898 0.92651367 C-21.08523627 -0.29160117 -10.59424166 -0.30483652 0 0 Z " fill="#3278CC" transform="translate(279,175)"/>
<path d="M0 0 C2 1.0625 2 1.0625 3 3 C3.015625 6.3203125 3.015625 6.3203125 2 10 C-0.46367461 12.01658645 -2.48053926 13.35573701 -5.25 14.8125 C-5.9927417 15.22483887 -6.7354834 15.63717773 -7.50073242 16.06201172 C-13.67557984 19.43149793 -19.98479128 22.554265 -26.3125 25.625 C-27.21323242 26.06303955 -28.11396484 26.5010791 -29.04199219 26.95239258 C-29.89051758 27.35224365 -30.73904297 27.75209473 -31.61328125 28.1640625 C-32.36391846 28.51936035 -33.11455566 28.8746582 -33.88793945 29.24072266 C-36 30 -36 30 -40 30 C-35.48300179 19.45232865 -22.9658249 11.69819388 -14 5 C-13.38914551 4.53223145 -12.77829102 4.06446289 -12.14892578 3.58251953 C-7.8664366 0.38173099 -5.40194424 -0.83106835 0 0 Z " fill="#F8F8FB" transform="translate(418,106)"/>
<path d="M0 0 C3.0625 0.4375 3.0625 0.4375 5.5 2 C7.2977008 4.80441324 7.12347242 5.97593164 6.5769043 9.1652832 C5.42048795 14.27338331 3.81135373 19.25423479 2.25 24.25 C1.90646484 25.37470703 1.56292969 26.49941406 1.20898438 27.65820312 C-4.65114337 46.57992891 -4.65114337 46.57992891 -8.9375 49.4375 C-9.22592274 36.90072501 -9.46910853 24.43402713 -7.625 12 C-7.50729248 11.17338867 -7.38958496 10.34677734 -7.26831055 9.49511719 C-6.38655593 4.17186922 -5.67805147 0.84566724 0 0 Z " fill="#F9F9FB" transform="translate(351.9375,63.5625)"/>
<path d="M0 0 C2.9838283 1.98921886 4.60276841 3.38502568 5.4765625 6.9375 C5.76236595 10.90866372 5.28870077 12.60940484 2.875 15.875 C-2.13049453 19.57471335 -6.81374888 20.47800679 -12.9375 20.3125 C-15 20 -15 20 -17.625 18.375 C-19 16 -19 16 -19.25 13.3125 C-16.00787785 4.7208763 -9.46932698 -1.55709774 0 0 Z " fill="#F6F6FA" transform="translate(35,139)"/>
<path d="M0 0 C0.66 0 1.32 0 2 0 C6.21083274 9.76147589 8.90897404 22.40357631 7 33 C4.85189476 35.66599224 3.84257533 36.85614568 0.4375 37.4375 C-2.54715442 36.9017928 -3.24784806 36.46099973 -5 34 C-6.25068036 23.74932569 -5.85896571 8.78844857 0 0 Z " fill="#3177CB" transform="translate(332,187)"/>
<path d="M0 0 C10.39022219 1.20004028 19.41607094 9.17297971 27 16 C29.1610211 19.24153166 29.64247553 20.23692901 29 24 C26.875 26.375 26.875 26.375 24 28 C20.9045792 28.03880054 18.85757429 27.75650403 16.48779297 25.66601562 C14.89806482 23.85663682 13.4402982 21.99291909 12 20.0625 C11.47889648 19.38678955 10.95779297 18.7110791 10.42089844 18.01489258 C0 4.30772895 0 4.30772895 0 0 Z " fill="#3177CB" transform="translate(347,181)"/>
<path d="M0 0 C3.4676416 0.92470443 4.8340118 1.74269793 6.8125 4.75 C7.125 7.5 7.125 7.5 5.8125 10.75 C-0.73470719 18.17644844 -12.19496687 27.80617753 -22.1875 28.75 C-20.81938415 23.77640757 -18.53462461 19.97953879 -15.5 15.875 C-15.05301758 15.2651123 -14.60603516 14.65522461 -14.14550781 14.02685547 C-12.83786715 12.25877134 -11.51520417 10.50304498 -10.1875 8.75 C-9.52621094 7.863125 -8.86492187 6.97625 -8.18359375 6.0625 C-4.11780587 0.9688955 -4.11780587 0.9688955 0 0 Z " fill="#F6F6FA" transform="translate(369.1875,122.25)"/>
<path d="M0 0 C-0.48972363 4.81561567 -2.81658113 8.03221229 -5.625 11.8125 C-6.07649414 12.42762451 -6.52798828 13.04274902 -6.99316406 13.67651367 C-8.31550145 15.46148118 -9.65395726 17.23286626 -11 19 C-11.66257812 19.8765625 -12.32515625 20.753125 -13.0078125 21.65625 C-15.61467774 24.88268411 -17.27950763 26.71745397 -21.1875 28.25 C-24 28 -24 28 -26.4375 26.5 C-28 24 -28 24 -27.93359375 20.65625 C-26.77636182 16.12416178 -25.27653858 14.85364455 -21.625 12 C-21.09132813 11.57992676 -20.55765625 11.15985352 -20.0078125 10.72705078 C-6.14641964 0 -6.14641964 0 0 0 Z " fill="#3278CC" transform="translate(318,181)"/>
<path d="M0 0 C2.375 1.5 2.375 1.5 4 4 C4 10.45642322 1.83847932 16.23735141 -1 22 C-1.66 22.66 -2.32 23.32 -3 24 C-5.125 23.625 -5.125 23.625 -7 23 C-8.90703192 16.68295677 -9.8582779 10.60132261 -9 4 C-6.62008434 0.20976395 -4.42470019 -0.88494004 0 0 Z " fill="#F2F2F8" transform="translate(21,24)"/>
<path d="M0 0 C2.4375 1.625 2.4375 1.625 4 4 C4 7.33164372 3.74973215 9.17913941 1.4765625 11.66796875 C-2.1893487 13.63969701 -5.53264147 13.35986197 -9.625 13.25 C-10.78902344 13.24226562 -10.78902344 13.24226562 -11.9765625 13.234375 C-17.68995536 13.15502232 -17.68995536 13.15502232 -20 12 C-19.64537771 9.22312716 -19.24613432 8.20868995 -17.07421875 6.3671875 C-16.28660156 5.87476563 -15.49898438 5.38234375 -14.6875 4.875 C-13.90761719 4.37742188 -13.12773438 3.87984375 -12.32421875 3.3671875 C-7.98102814 0.81236949 -5.17444026 -0.64680503 0 0 Z " fill="#F4F5F9" transform="translate(136,125)"/>
<path d="M0 0 C6.46153846 0.46153846 6.46153846 0.46153846 9 3 C9.125 6.3125 9.125 6.3125 8 10 C5.57702218 12.1582344 2.88696239 13.54854377 0 15 C-1.546875 15.8971875 -1.546875 15.8971875 -3.125 16.8125 C-6.29997931 18.1239045 -8.59807487 18.24299465 -12 18 C-11.56941713 12.83300552 -10.12316152 10.4644821 -6.5625 6.75 C-5.75941406 5.89921875 -4.95632812 5.0484375 -4.12890625 4.171875 C-2.75931478 2.7746404 -1.38348208 1.38348208 0 0 Z " fill="#F7F7FB" transform="translate(107,77)"/>
<path d="M0 0 C2 2 2 2 2.5 5.0625 C1.55244221 12.52451763 -3.58005503 18.05828547 -9 23 C-9.99 22.67 -10.98 22.34 -12 22 C-12.58913461 6.32247332 -12.58913461 6.32247332 -8.6484375 1.265625 C-5.91257259 -0.83489688 -3.30790161 -0.30071833 0 0 Z " fill="#F7F7FB" transform="translate(57,34)"/>
<path d="M0 0 C1.58475401 2.79662472 1.52197423 4.7243196 1.0625 7.875 C-0.99587864 9.85456685 -2.3637159 10.78283779 -5.19921875 11.23828125 C-11.00219392 11.1168019 -16.33129015 10.3916558 -21.9375 8.875 C-21.9375 7.555 -21.9375 6.235 -21.9375 4.875 C-16.42214691 0.30129256 -6.87835152 -3.99388153 0 0 Z " fill="#F8F9FB" transform="translate(141.9375,144.125)"/>
<path d="M0 0 C2 3 2 3 1.875 6 C1 9 1 9 -0.6875 10.8125 C-6.89957087 14.00248234 -14.19895523 13.09904434 -21 13 C-20.47390666 9.02309105 -18.66597631 7.439122 -15.6875 4.875 C-14.90761719 4.19179687 -14.12773438 3.50859375 -13.32421875 2.8046875 C-8.58163779 -0.87778713 -5.98448815 -1.44071011 0 0 Z " fill="#F9F9FC" transform="translate(132,109)"/>
<path d="M0 0 C3.5 0.25 3.5 0.25 5.5 2.25 C5.9375 5.5625 5.9375 5.5625 5.5 9.25 C3.5 11.8125 3.5 11.8125 0.5 14.25 C-0.47646484 15.06210938 -0.47646484 15.06210938 -1.47265625 15.890625 C-6.921875 20.25 -6.921875 20.25 -11.5 20.25 C-11.14445565 12.78356865 -9.03964901 0.64568921 0 0 Z " fill="#F8F9FB" transform="translate(84.5,51.75)"/>
<path d="M0 0 C6.99387206 0.99912458 10.5214407 1.86049156 14.875 7.375 C16 10 16 10 16 16 C10.72 16 5.44 16 0 16 C0 10.72 0 5.44 0 0 Z " fill="#F4F5FA" transform="translate(0,150)"/>
<path d="M0 0 C2.475 0.495 2.475 0.495 5 1 C7.50184885 4.75277327 7.29515907 6.54033094 7 11 C6.41607062 13.49994766 5.74841182 15.98177372 5 18.4375 C4.62875 19.67371094 4.2575 20.90992188 3.875 22.18359375 C3.58625 23.11300781 3.2975 24.04242188 3 25 C2.34 25 1.68 25 1 25 C1.33 48.43 1.66 71.86 2 96 C1.34 96 0.68 96 0 96 C0 64.32 0 32.64 0 0 Z " fill="#DCDDED" transform="translate(0,23)"/>
<path d="M0 0 C5.39926135 1.07985227 6.75222985 1.73150209 10 6 C11.07537351 12.0937832 8.80358867 17.63661299 6 23 C4.55078125 24.796875 4.55078125 24.796875 3 26 C2.01 26 1.02 26 0 26 C0 17.42 0 8.84 0 0 Z " fill="#F0F0F7" transform="translate(0,121)"/>
<path d="M0 0 C1.953125 1.90234375 1.953125 1.90234375 3 4 C3 4.66 3 5.32 3 6 C-9.21 6 -21.42 6 -34 6 C-26.81093283 -1.18906717 -9.71457043 -1.47577804 0 0 Z " fill="#F6F6FA" transform="translate(388,160)"/>
<path d="M0 0 C12.21 0 24.42 0 37 0 C35 5 35 5 33 6 C25.88977758 6.64979186 18.99251696 5.84630862 12 4.625 C11.27031006 4.49899414 10.54062012 4.37298828 9.78881836 4.24316406 C6.24350783 3.58246021 3.11134864 2.86356819 0 1 C0 0.67 0 0.34 0 0 Z " fill="#3177CB" transform="translate(354,166)"/>
<path d="M0 0 C2.6875 0.3125 2.6875 0.3125 5.0625 1.9375 C6.6875 4.3125 6.6875 4.3125 6.8125 7.25 C5.30488175 11.35407189 3.28294548 12.89248862 -0.3125 15.3125 C-3.0625 16.25 -3.0625 16.25 -5.3125 16.3125 C-7.3125 14.3125 -7.3125 14.3125 -7.6875 11.0625 C-7.21850655 6.37256554 -5.18176799 0.70023892 0 0 Z " fill="#F4F4F9" transform="translate(89.3125,25.6875)"/>
<path d="M0 0 C2.15502531 3.23253796 2.46856135 4.25150923 2 8 C0.82421875 9.6328125 0.82421875 9.6328125 -1 11 C-3.59375 11.3984375 -3.59375 11.3984375 -6.5 11.375 C-7.4590625 11.38273438 -8.418125 11.39046875 -9.40625 11.3984375 C-12 11 -12 11 -13.84375 9.59765625 C-15 8 -15 8 -15 6.0625 C-11.80445111 -0.52831958 -6.48778081 -1.39023875 0 0 Z " fill="#F5F5FA" transform="translate(162,129)"/>
<path d="M0 0 C4 1 4 1 6 3 C7.20243493 10.57813641 5.58101246 18.25667893 4.125 25.6875 C3.95145996 26.5851709 3.77791992 27.4828418 3.59912109 28.40771484 C3.42461426 29.24641113 3.25010742 30.08510742 3.0703125 30.94921875 C2.91320801 31.70549561 2.75610352 32.46177246 2.59423828 33.2409668 C2 35 2 35 0 36 C0 24.12 0 12.24 0 0 Z " fill="#F7F7FA" transform="translate(333,108)"/>
<path d="M0 0 C2.875 0.5625 2.875 0.5625 4.75 1.6875 C6.44952613 4.52004356 6.40341321 6.32596907 5.875 9.5625 C3.0103756 12.98156784 0.40693651 13.82866041 -3.875 14.375 C-6.234375 14.58203125 -6.234375 14.58203125 -8.125 14.5625 C-8.455 14.2325 -8.785 13.9025 -9.125 13.5625 C-8.96409286 9.45936788 -8.37627678 6.41852491 -5.9375 3.125 C-3.125 0.5625 -3.125 0.5625 0 0 Z " fill="#F6F6FA" transform="translate(121.125,53.4375)"/>
<path d="M0 0 C2 2 2 2 2.375 5.4375 C2 9 2 9 0.3359375 10.7109375 C-2.56402665 12.31125217 -4.45966106 12.3050121 -7.75 12.1875 C-8.73484375 12.16042969 -9.7196875 12.13335937 -10.734375 12.10546875 C-11.48203125 12.07066406 -12.2296875 12.03585938 -13 12 C-13.64453125 9.703125 -13.64453125 9.703125 -14 7 C-9.63892996 0.87092859 -7.44751735 -0.39897414 0 0 Z " fill="#F6F6FA" transform="translate(148,89)"/>
<path d="M0 0 C1.875 1.125 1.875 1.125 3 3 C3.5625 5.75 3.5625 5.75 3 9 C1.22412657 11.56343469 -0.80411422 13.79104347 -3 16 C-5.4375 15.625 -5.4375 15.625 -8 15 C-9.22691067 12.54617866 -9.20175931 10.80015897 -9.25 8.0625 C-9.27578125 7.18722656 -9.3015625 6.31195312 -9.328125 5.41015625 C-9 3 -9 3 -7.671875 1.20703125 C-5.0823514 -0.66250799 -3.09617422 -0.38702178 0 0 Z " fill="#FAFAFC" transform="translate(55,8)"/>
<path d="M0 0 C1.875 1.0625 1.875 1.0625 3 3 C3.56485299 7.27674407 3.22199711 9.54778366 1.3125 13.4375 C-1 16 -1 16 -3.75 16.375 C-4.4925 16.25125 -5.235 16.1275 -6 16 C-8.16306173 11.4936214 -9.69665374 8.10879409 -9 3 C-6.79086995 -0.68188342 -4.01844539 -0.50230567 0 0 Z " fill="#FAFAFC" transform="translate(14,0)"/>
<path d="M0 0 C0 4.30752034 -2.39237242 6.94451942 -4.75 10.375 C-5.1934375 11.035 -5.636875 11.695 -6.09375 12.375 C-8.58196435 16.04877531 -11.17113715 19.57628282 -14 23 C-14.8807089 18.08620354 -15.2192752 13.87197781 -14 9 C-10.27897829 4.81219768 -4.97261307 2.39750987 0 0 Z " fill="#1A218B" transform="translate(14,185)"/>
<path d="M0 0 C1.83203125 1.39453125 1.83203125 1.39453125 3 3 C3 3.66 3 4.32 3 5 C-4.59 5 -12.18 5 -20 5 C-14.53533288 -0.46466712 -7.47655747 -1.09155392 0 0 Z " fill="#EFF0F7" transform="translate(141,161)"/>
<path d="M0 0 C5.46835443 0.48607595 5.46835443 0.48607595 7.875 2.8125 C9 5 9 5 9 9 C6.03 9 3.06 9 0 9 C0 6.03 0 3.06 0 0 Z " fill="#F8F9FC" transform="translate(333,157)"/>
<path d="M0 0 C1.9375 0.75 1.9375 0.75 4 2 C4.875 4 4.875 4 5 6 C4.34 6.66 3.68 7.32 3 8 C0.375 7.625 0.375 7.625 -2 7 C-2.6875 5.1875 -2.6875 5.1875 -3 3 C-1.5625 1.25 -1.5625 1.25 0 0 Z " fill="#3071C7" transform="translate(67,269)"/>
<path d="M0 0 C2.625 0.375 2.625 0.375 5 1 C6.125 4.75 6.125 4.75 5 7 C3.02 7 1.04 7 -1 7 C-1.625 4.625 -1.625 4.625 -2 2 C-1.34 1.34 -0.68 0.68 0 0 Z " fill="#3071C7" transform="translate(109,235)"/>
<path d="M0 0 C0.78375 0.04125 1.5675 0.0825 2.375 0.125 C3 2.5 3 2.5 3.375 5.125 C2.715 5.785 2.055 6.445 1.375 7.125 C-1.25 6.75 -1.25 6.75 -3.625 6.125 C-4.25 4.25 -4.25 4.25 -4.625 2.125 C-2.625 0.125 -2.625 0.125 0 0 Z " fill="#3072C7" transform="translate(53.625,223.875)"/>
<path d="M0 0 C2.625 0.375 2.625 0.375 5 1 C5.625 2.875 5.625 2.875 6 5 C4 7 4 7 1.375 7.125 C0.59125 7.08375 -0.1925 7.0425 -1 7 C-1.625 4.625 -1.625 4.625 -2 2 C-1.34 1.34 -0.68 0.68 0 0 Z " fill="#3073C8" transform="translate(117,299)"/>
<path d="M0 0 C0.99 0.33 1.98 0.66 3 1 C5.35680213 1.08397157 7.71594081 1.10728187 10.07421875 1.09765625 C10.7580513 1.0962413 11.44188385 1.09482635 12.1464386 1.09336853 C14.32683722 1.08777876 16.50713251 1.07522822 18.6875 1.0625 C20.16731622 1.05748367 21.64713406 1.052921 23.12695312 1.04882812 C26.75133557 1.03781271 30.3756577 1.02055512 34 1 C34 1.66 34 2.32 34 3 C21.79 3 9.58 3 -3 3 C-2.01 2.01 -1.02 1.02 0 0 Z " fill="#E1E9F5" transform="translate(357,163)"/>
<path d="M0 0 C2.625 0.375 2.625 0.375 5 1 C5.625 2.875 5.625 2.875 6 5 C5.34 5.66 4.68 6.32 4 7 C1.375 6.625 1.375 6.625 -1 6 C-1.625 4.125 -1.625 4.125 -2 2 C-1.34 1.34 -0.68 0.68 0 0 Z " fill="#3175C9" transform="translate(15,299)"/>
<path d="M0 0 C2.125 0.375 2.125 0.375 4 1 C4.625 3.375 4.625 3.375 5 6 C4.34 6.66 3.68 7.32 3 8 C0.875 7.625 0.875 7.625 -1 7 C-1.625 4.625 -1.625 4.625 -2 2 C-1.34 1.34 -0.68 0.68 0 0 Z " fill="#3174C9" transform="translate(96,277)"/>
<path d="M0 0 C2.125 0.375 2.125 0.375 4 1 C4.625 3.375 4.625 3.375 5 6 C4.34 6.66 3.68 7.32 3 8 C0.875 7.625 0.875 7.625 -1 7 C-1.625 4.625 -1.625 4.625 -2 2 C-1.34 1.34 -0.68 0.68 0 0 Z " fill="#3175C9" transform="translate(37,277)"/>
<path d="M0 0 C1.66611905 -0.042721 3.33382885 -0.04063832 5 0 C6 1 6 1 6.0625 3.5625 C6.041875 4.366875 6.02125 5.17125 6 6 C3.625 6.625 3.625 6.625 1 7 C0.34 6.34 -0.32 5.68 -1 5 C-0.625 2.375 -0.625 2.375 0 0 Z " fill="#3175CA" transform="translate(116,265)"/>
<path d="M0 0 C1.66611905 -0.042721 3.33382885 -0.04063832 5 0 C6 1 6 1 6.0625 3.5625 C6.041875 4.366875 6.02125 5.17125 6 6 C3.625 6.625 3.625 6.625 1 7 C0.34 6.34 -0.32 5.68 -1 5 C-0.625 2.375 -0.625 2.375 0 0 Z " fill="#3175CA" transform="translate(21,232)"/>
<path d="M0 0 C2.625 0.375 2.625 0.375 5 1 C5.042721 2.66611905 5.04063832 4.33382885 5 6 C4 7 4 7 1.4375 7.0625 C0.2309375 7.0315625 0.2309375 7.0315625 -1 7 C-1.625 4.625 -1.625 4.625 -2 2 C-1.34 1.34 -0.68 0.68 0 0 Z " fill="#3176CA" transform="translate(73,202)"/>
<path d="M0 0 C1.66611905 -0.042721 3.33382885 -0.04063832 5 0 C6 1 6 1 6.0625 3.5625 C6.041875 4.366875 6.02125 5.17125 6 6 C3.625 6.625 3.625 6.625 1 7 C0.34 6.34 -0.32 5.68 -1 5 C-0.625 2.375 -0.625 2.375 0 0 Z " fill="#3177CB" transform="translate(80,173)"/>
<path d="M0 0 C2.125 0.375 2.125 0.375 4 1 C4.38218767 2.65614657 4.71395102 4.32457024 5 6 C4 7 4 7 1.4375 7.0625 C0.2309375 7.0315625 0.2309375 7.0315625 -1 7 C-1.625 4.625 -1.625 4.625 -2 2 C-1.34 1.34 -0.68 0.68 0 0 Z " fill="#3177CB" transform="translate(139,286)"/>
<path d="M0 0 C1.67542976 0.28604898 3.34385343 0.61781233 5 1 C5 2.65 5 4.3 5 6 C2.625 6.625 2.625 6.625 0 7 C-0.66 6.34 -1.32 5.68 -2 5 C-1.46428571 1.46428571 -1.46428571 1.46428571 0 0 Z " fill="#3279CC" transform="translate(117,206)"/>
<path d="M0 0 C2.125 0.375 2.125 0.375 4 1 C4.38218767 2.65614657 4.71395102 4.32457024 5 6 C4 7 4 7 1.4375 7.0625 C0.2309375 7.0315625 0.2309375 7.0315625 -1 7 C-1.625 4.625 -1.625 4.625 -2 2 C-1.34 1.34 -0.68 0.68 0 0 Z " fill="#3177CB" transform="translate(139,184)"/>
<path d="M0 0 C3.63 1.65 7.26 3.3 11 5 C11 5.33 11 5.66 11 6 C7.37 6 3.74 6 0 6 C0 4.02 0 2.04 0 0 Z " fill="#1A218B" transform="translate(0,167)"/>
<path d="M0 0 C3.3 0 6.6 0 10 0 C6.43688534 2.672336 4.15414253 3.77263971 0 5 C0 3.35 0 1.7 0 0 Z " fill="#191E88" transform="translate(0,180)"/>
<path d="M0 0 C1.9375 0.3125 1.9375 0.3125 4 1 C4.33 1.99 4.66 2.98 5 4 C2.69 4 0.38 4 -2 4 C-1.34 2.68 -0.68 1.36 0 0 Z " fill="#3071C7" transform="translate(125,328)"/>
<path d="M0 0 C1.9375 0.3125 1.9375 0.3125 4 1 C4.33 1.99 4.66 2.98 5 4 C2.69 4 0.38 4 -2 4 C-1.34 2.68 -0.68 1.36 0 0 Z " fill="#2F70C6" transform="translate(8,328)"/>
</svg>
