<?xml version="1.0" standalone="no"?>
<!DOCTYPE svg PUBLIC "-//W3C//DTD SVG 20010904//EN"
 "http://www.w3.org/TR/2001/REC-SVG-20010904/DTD/svg10.dtd">
<svg version="1.0" xmlns="http://www.w3.org/2000/svg"
 width="700.000000pt" height="700.000000pt" viewBox="0 0 700.000000 700.000000"
 preserveAspectRatio="xMidYMid meet">
<metadata>
Created by potrace 1.14, written by Peter Selinger 2001-2017
</metadata>
<g transform="translate(0.000000,700.000000) scale(0.100000,-0.100000)"
fill="#000000" stroke="none">
<path d="M3278 6995 c-1 -1 -42 -5 -89 -9 -47 -4 -95 -8 -106 -10 -11 -3 -44
-7 -74 -11 -249 -32 -645 -140 -846 -231 -28 -13 -55 -24 -58 -24 -13 0 -305
-150 -381 -195 -174 -105 -344 -227 -489 -349 -140 -118 -409 -398 -489 -509
-17 -23 -33 -44 -36 -47 -29 -26 -191 -274 -265 -405 -198 -353 -345 -775
-399 -1140 -2 -16 -8 -50 -12 -75 -36 -226 -40 -683 -9 -907 10 -67 14 -99 20
-148 4 -27 10 -66 15 -85 5 -19 12 -48 14 -65 9 -48 13 -65 36 -155 21 -86 74
-259 89 -295 5 -11 28 -69 51 -130 44 -115 153 -340 223 -460 148 -256 363
-531 579 -742 82 -79 118 -112 228 -207 79 -68 418 -306 436 -306 2 0 23 -12
46 -26 54 -34 295 -155 378 -189 132 -54 249 -95 430 -149 38 -12 128 -34 215
-52 238 -51 431 -69 725 -69 254 0 367 9 575 45 33 6 76 13 95 16 66 10 267
63 381 100 696 223 1303 655 1740 1239 50 66 179 253 179 259 0 2 19 35 42 72
222 366 405 910 453 1349 4 33 9 71 11 85 9 47 11 525 3 605 -15 165 -21 220
-24 225 -2 3 -6 30 -10 60 -7 55 -58 298 -75 355 -158 533 -361 921 -694 1325
-79 96 -328 349 -426 432 -197 167 -480 353 -710 465 -140 68 -194 93 -202 93
-4 0 -27 8 -51 19 -76 33 -101 43 -192 72 -170 56 -403 113 -550 135 -27 4
-57 9 -65 10 -8 2 -42 6 -76 9 -33 4 -74 9 -90 11 -32 5 -540 14 -546 9z m417
-1499 c518 -52 1012 -311 1334 -701 36 -44 68 -82 71 -85 15 -15 96 -138 139
-213 236 -409 321 -916 231 -1372 -6 -27 -12 -59 -14 -70 -23 -119 -90 -304
-161 -445 -83 -164 -122 -224 -255 -394 -31 -40 -207 -214 -265 -263 -133
-112 -319 -225 -499 -302 -522 -223 -1153 -204 -1661 51 -354 178 -644 446
-839 778 -102 173 -197 405 -226 550 -5 25 -12 56 -15 70 -2 14 -7 36 -10 50
-42 205 -38 527 10 750 3 14 7 35 10 48 2 13 6 31 9 40 106 381 269 666 526
922 111 111 120 118 215 191 128 98 390 245 471 265 16 4 34 10 39 14 21 14
235 76 300 86 22 3 58 9 80 14 22 5 76 12 120 15 44 4 81 8 82 9 5 4 247 -2
308 -8z"/>
</g>
</svg>
